G04 #@! TF.GenerationSoftware,KiCad,Pcbnew,10.0.3*
G04 #@! TF.CreationDate,2026-09-25T22:19:13-04:00*
G04 #@! TF.ProjectId,RPI Beacon,52504920-4265-4616-936f-6e2e6b696361,rev?*
G04 #@! TF.SameCoordinates,Original*
G04 #@! TF.FileFunction,Legend,Top*
G04 #@! TF.FilePolarity,Positive*
%FSLAX46Y46*%
G04 Gerber Fmt 4.6, Leading zero omitted, Abs format (unit mm)*
G04 Created by KiCad (PCBNEW 10.0.3) date 2026-09-25 22:19:13*
%MOMM*%
%LPD*%
G01*
G04 APERTURE LIST*
G04 Aperture macros list*
%AMRoundRect*
0 Rectangle with rounded corners*
0 $1 Rounding radius*
0 $2 $3 $4 $5 $6 $7 $8 $9 X,Y pos of 4 corners*
0 Add a 4 corners polygon primitive as box body*
4,1,4,$2,$3,$4,$5,$6,$7,$8,$9,$2,$3,0*
0 Add four circle primitives for the rounded corners*
1,1,$1+$1,$2,$3*
1,1,$1+$1,$4,$5*
1,1,$1+$1,$6,$7*
1,1,$1+$1,$8,$9*
0 Add four rect primitives between the rounded corners*
20,1,$1+$1,$2,$3,$4,$5,0*
20,1,$1+$1,$4,$5,$6,$7,0*
20,1,$1+$1,$6,$7,$8,$9,0*
20,1,$1+$1,$8,$9,$2,$3,0*%
G04 Aperture macros list end*
%ADD10C,0.150000*%
%ADD11C,0.100000*%
%ADD12C,0.120000*%
%ADD13C,0.152400*%
%ADD14RoundRect,0.250000X-0.250000X-0.475000X0.250000X-0.475000X0.250000X0.475000X-0.250000X0.475000X0*%
%ADD15RoundRect,0.250000X0.250000X0.475000X-0.250000X0.475000X-0.250000X-0.475000X0.250000X-0.475000X0*%
%ADD16RoundRect,0.250000X0.262500X0.450000X-0.262500X0.450000X-0.262500X-0.450000X0.262500X-0.450000X0*%
%ADD17R,1.800000X1.800000*%
%ADD18C,1.800000*%
%ADD19RoundRect,0.150000X-0.512500X-0.150000X0.512500X-0.150000X0.512500X0.150000X-0.512500X0.150000X0*%
%ADD20R,0.558800X0.977900*%
%ADD21RoundRect,0.250000X-0.262500X-0.450000X0.262500X-0.450000X0.262500X0.450000X-0.262500X0.450000X0*%
%ADD22RoundRect,0.250000X0.450000X-0.262500X0.450000X0.262500X-0.450000X0.262500X-0.450000X-0.262500X0*%
%ADD23C,2.390000*%
%ADD24C,3.450000*%
%ADD25RoundRect,0.250003X-2.999997X3.499997X-2.999997X-3.499997X2.999997X-3.499997X2.999997X3.499997X0*%
%ADD26RoundRect,0.250000X0.475000X-0.250000X0.475000X0.250000X-0.475000X0.250000X-0.475000X-0.250000X0*%
%ADD27C,5.500000*%
%ADD28C,2.000000*%
%ADD29O,1.100000X1.700000*%
G04 APERTURE END LIST*
D10*
X86608333Y-81169580D02*
X86560714Y-81217200D01*
X86560714Y-81217200D02*
X86417857Y-81264819D01*
X86417857Y-81264819D02*
X86322619Y-81264819D01*
X86322619Y-81264819D02*
X86179762Y-81217200D01*
X86179762Y-81217200D02*
X86084524Y-81121961D01*
X86084524Y-81121961D02*
X86036905Y-81026723D01*
X86036905Y-81026723D02*
X85989286Y-80836247D01*
X85989286Y-80836247D02*
X85989286Y-80693390D01*
X85989286Y-80693390D02*
X86036905Y-80502914D01*
X86036905Y-80502914D02*
X86084524Y-80407676D01*
X86084524Y-80407676D02*
X86179762Y-80312438D01*
X86179762Y-80312438D02*
X86322619Y-80264819D01*
X86322619Y-80264819D02*
X86417857Y-80264819D01*
X86417857Y-80264819D02*
X86560714Y-80312438D01*
X86560714Y-80312438D02*
X86608333Y-80360057D01*
X87560714Y-81264819D02*
X86989286Y-81264819D01*
X87275000Y-81264819D02*
X87275000Y-80264819D01*
X87275000Y-80264819D02*
X87179762Y-80407676D01*
X87179762Y-80407676D02*
X87084524Y-80502914D01*
X87084524Y-80502914D02*
X86989286Y-80550533D01*
X86533333Y-89439580D02*
X86485714Y-89487200D01*
X86485714Y-89487200D02*
X86342857Y-89534819D01*
X86342857Y-89534819D02*
X86247619Y-89534819D01*
X86247619Y-89534819D02*
X86104762Y-89487200D01*
X86104762Y-89487200D02*
X86009524Y-89391961D01*
X86009524Y-89391961D02*
X85961905Y-89296723D01*
X85961905Y-89296723D02*
X85914286Y-89106247D01*
X85914286Y-89106247D02*
X85914286Y-88963390D01*
X85914286Y-88963390D02*
X85961905Y-88772914D01*
X85961905Y-88772914D02*
X86009524Y-88677676D01*
X86009524Y-88677676D02*
X86104762Y-88582438D01*
X86104762Y-88582438D02*
X86247619Y-88534819D01*
X86247619Y-88534819D02*
X86342857Y-88534819D01*
X86342857Y-88534819D02*
X86485714Y-88582438D01*
X86485714Y-88582438D02*
X86533333Y-88630057D01*
X86914286Y-88630057D02*
X86961905Y-88582438D01*
X86961905Y-88582438D02*
X87057143Y-88534819D01*
X87057143Y-88534819D02*
X87295238Y-88534819D01*
X87295238Y-88534819D02*
X87390476Y-88582438D01*
X87390476Y-88582438D02*
X87438095Y-88630057D01*
X87438095Y-88630057D02*
X87485714Y-88725295D01*
X87485714Y-88725295D02*
X87485714Y-88820533D01*
X87485714Y-88820533D02*
X87438095Y-88963390D01*
X87438095Y-88963390D02*
X86866667Y-89534819D01*
X86866667Y-89534819D02*
X87485714Y-89534819D01*
X85345833Y-146704819D02*
X85012500Y-146228628D01*
X84774405Y-146704819D02*
X84774405Y-145704819D01*
X84774405Y-145704819D02*
X85155357Y-145704819D01*
X85155357Y-145704819D02*
X85250595Y-145752438D01*
X85250595Y-145752438D02*
X85298214Y-145800057D01*
X85298214Y-145800057D02*
X85345833Y-145895295D01*
X85345833Y-145895295D02*
X85345833Y-146038152D01*
X85345833Y-146038152D02*
X85298214Y-146133390D01*
X85298214Y-146133390D02*
X85250595Y-146181009D01*
X85250595Y-146181009D02*
X85155357Y-146228628D01*
X85155357Y-146228628D02*
X84774405Y-146228628D01*
X85822024Y-146704819D02*
X86012500Y-146704819D01*
X86012500Y-146704819D02*
X86107738Y-146657200D01*
X86107738Y-146657200D02*
X86155357Y-146609580D01*
X86155357Y-146609580D02*
X86250595Y-146466723D01*
X86250595Y-146466723D02*
X86298214Y-146276247D01*
X86298214Y-146276247D02*
X86298214Y-145895295D01*
X86298214Y-145895295D02*
X86250595Y-145800057D01*
X86250595Y-145800057D02*
X86202976Y-145752438D01*
X86202976Y-145752438D02*
X86107738Y-145704819D01*
X86107738Y-145704819D02*
X85917262Y-145704819D01*
X85917262Y-145704819D02*
X85822024Y-145752438D01*
X85822024Y-145752438D02*
X85774405Y-145800057D01*
X85774405Y-145800057D02*
X85726786Y-145895295D01*
X85726786Y-145895295D02*
X85726786Y-146133390D01*
X85726786Y-146133390D02*
X85774405Y-146228628D01*
X85774405Y-146228628D02*
X85822024Y-146276247D01*
X85822024Y-146276247D02*
X85917262Y-146323866D01*
X85917262Y-146323866D02*
X86107738Y-146323866D01*
X86107738Y-146323866D02*
X86202976Y-146276247D01*
X86202976Y-146276247D02*
X86250595Y-146228628D01*
X86250595Y-146228628D02*
X86298214Y-146133390D01*
X85433333Y-123704819D02*
X85100000Y-123228628D01*
X84861905Y-123704819D02*
X84861905Y-122704819D01*
X84861905Y-122704819D02*
X85242857Y-122704819D01*
X85242857Y-122704819D02*
X85338095Y-122752438D01*
X85338095Y-122752438D02*
X85385714Y-122800057D01*
X85385714Y-122800057D02*
X85433333Y-122895295D01*
X85433333Y-122895295D02*
X85433333Y-123038152D01*
X85433333Y-123038152D02*
X85385714Y-123133390D01*
X85385714Y-123133390D02*
X85338095Y-123181009D01*
X85338095Y-123181009D02*
X85242857Y-123228628D01*
X85242857Y-123228628D02*
X84861905Y-123228628D01*
X86004762Y-123133390D02*
X85909524Y-123085771D01*
X85909524Y-123085771D02*
X85861905Y-123038152D01*
X85861905Y-123038152D02*
X85814286Y-122942914D01*
X85814286Y-122942914D02*
X85814286Y-122895295D01*
X85814286Y-122895295D02*
X85861905Y-122800057D01*
X85861905Y-122800057D02*
X85909524Y-122752438D01*
X85909524Y-122752438D02*
X86004762Y-122704819D01*
X86004762Y-122704819D02*
X86195238Y-122704819D01*
X86195238Y-122704819D02*
X86290476Y-122752438D01*
X86290476Y-122752438D02*
X86338095Y-122800057D01*
X86338095Y-122800057D02*
X86385714Y-122895295D01*
X86385714Y-122895295D02*
X86385714Y-122942914D01*
X86385714Y-122942914D02*
X86338095Y-123038152D01*
X86338095Y-123038152D02*
X86290476Y-123085771D01*
X86290476Y-123085771D02*
X86195238Y-123133390D01*
X86195238Y-123133390D02*
X86004762Y-123133390D01*
X86004762Y-123133390D02*
X85909524Y-123181009D01*
X85909524Y-123181009D02*
X85861905Y-123228628D01*
X85861905Y-123228628D02*
X85814286Y-123323866D01*
X85814286Y-123323866D02*
X85814286Y-123514342D01*
X85814286Y-123514342D02*
X85861905Y-123609580D01*
X85861905Y-123609580D02*
X85909524Y-123657200D01*
X85909524Y-123657200D02*
X86004762Y-123704819D01*
X86004762Y-123704819D02*
X86195238Y-123704819D01*
X86195238Y-123704819D02*
X86290476Y-123657200D01*
X86290476Y-123657200D02*
X86338095Y-123609580D01*
X86338095Y-123609580D02*
X86385714Y-123514342D01*
X86385714Y-123514342D02*
X86385714Y-123323866D01*
X86385714Y-123323866D02*
X86338095Y-123228628D01*
X86338095Y-123228628D02*
X86290476Y-123181009D01*
X86290476Y-123181009D02*
X86195238Y-123133390D01*
X85333333Y-135104819D02*
X85000000Y-134628628D01*
X84761905Y-135104819D02*
X84761905Y-134104819D01*
X84761905Y-134104819D02*
X85142857Y-134104819D01*
X85142857Y-134104819D02*
X85238095Y-134152438D01*
X85238095Y-134152438D02*
X85285714Y-134200057D01*
X85285714Y-134200057D02*
X85333333Y-134295295D01*
X85333333Y-134295295D02*
X85333333Y-134438152D01*
X85333333Y-134438152D02*
X85285714Y-134533390D01*
X85285714Y-134533390D02*
X85238095Y-134581009D01*
X85238095Y-134581009D02*
X85142857Y-134628628D01*
X85142857Y-134628628D02*
X84761905Y-134628628D01*
X85714286Y-134200057D02*
X85761905Y-134152438D01*
X85761905Y-134152438D02*
X85857143Y-134104819D01*
X85857143Y-134104819D02*
X86095238Y-134104819D01*
X86095238Y-134104819D02*
X86190476Y-134152438D01*
X86190476Y-134152438D02*
X86238095Y-134200057D01*
X86238095Y-134200057D02*
X86285714Y-134295295D01*
X86285714Y-134295295D02*
X86285714Y-134390533D01*
X86285714Y-134390533D02*
X86238095Y-134533390D01*
X86238095Y-134533390D02*
X85666667Y-135104819D01*
X85666667Y-135104819D02*
X86285714Y-135104819D01*
X85358333Y-158104819D02*
X85025000Y-157628628D01*
X84786905Y-158104819D02*
X84786905Y-157104819D01*
X84786905Y-157104819D02*
X85167857Y-157104819D01*
X85167857Y-157104819D02*
X85263095Y-157152438D01*
X85263095Y-157152438D02*
X85310714Y-157200057D01*
X85310714Y-157200057D02*
X85358333Y-157295295D01*
X85358333Y-157295295D02*
X85358333Y-157438152D01*
X85358333Y-157438152D02*
X85310714Y-157533390D01*
X85310714Y-157533390D02*
X85263095Y-157581009D01*
X85263095Y-157581009D02*
X85167857Y-157628628D01*
X85167857Y-157628628D02*
X84786905Y-157628628D01*
X85691667Y-157104819D02*
X86310714Y-157104819D01*
X86310714Y-157104819D02*
X85977381Y-157485771D01*
X85977381Y-157485771D02*
X86120238Y-157485771D01*
X86120238Y-157485771D02*
X86215476Y-157533390D01*
X86215476Y-157533390D02*
X86263095Y-157581009D01*
X86263095Y-157581009D02*
X86310714Y-157676247D01*
X86310714Y-157676247D02*
X86310714Y-157914342D01*
X86310714Y-157914342D02*
X86263095Y-158009580D01*
X86263095Y-158009580D02*
X86215476Y-158057200D01*
X86215476Y-158057200D02*
X86120238Y-158104819D01*
X86120238Y-158104819D02*
X85834524Y-158104819D01*
X85834524Y-158104819D02*
X85739286Y-158057200D01*
X85739286Y-158057200D02*
X85691667Y-158009580D01*
X138131905Y-160614819D02*
X138131905Y-159614819D01*
X138131905Y-159614819D02*
X138370000Y-159614819D01*
X138370000Y-159614819D02*
X138512857Y-159662438D01*
X138512857Y-159662438D02*
X138608095Y-159757676D01*
X138608095Y-159757676D02*
X138655714Y-159852914D01*
X138655714Y-159852914D02*
X138703333Y-160043390D01*
X138703333Y-160043390D02*
X138703333Y-160186247D01*
X138703333Y-160186247D02*
X138655714Y-160376723D01*
X138655714Y-160376723D02*
X138608095Y-160471961D01*
X138608095Y-160471961D02*
X138512857Y-160567200D01*
X138512857Y-160567200D02*
X138370000Y-160614819D01*
X138370000Y-160614819D02*
X138131905Y-160614819D01*
X139560476Y-159614819D02*
X139370000Y-159614819D01*
X139370000Y-159614819D02*
X139274762Y-159662438D01*
X139274762Y-159662438D02*
X139227143Y-159710057D01*
X139227143Y-159710057D02*
X139131905Y-159852914D01*
X139131905Y-159852914D02*
X139084286Y-160043390D01*
X139084286Y-160043390D02*
X139084286Y-160424342D01*
X139084286Y-160424342D02*
X139131905Y-160519580D01*
X139131905Y-160519580D02*
X139179524Y-160567200D01*
X139179524Y-160567200D02*
X139274762Y-160614819D01*
X139274762Y-160614819D02*
X139465238Y-160614819D01*
X139465238Y-160614819D02*
X139560476Y-160567200D01*
X139560476Y-160567200D02*
X139608095Y-160519580D01*
X139608095Y-160519580D02*
X139655714Y-160424342D01*
X139655714Y-160424342D02*
X139655714Y-160186247D01*
X139655714Y-160186247D02*
X139608095Y-160091009D01*
X139608095Y-160091009D02*
X139560476Y-160043390D01*
X139560476Y-160043390D02*
X139465238Y-159995771D01*
X139465238Y-159995771D02*
X139274762Y-159995771D01*
X139274762Y-159995771D02*
X139179524Y-160043390D01*
X139179524Y-160043390D02*
X139131905Y-160091009D01*
X139131905Y-160091009D02*
X139084286Y-160186247D01*
X76986905Y-152494819D02*
X76986905Y-151494819D01*
X76986905Y-151494819D02*
X77225000Y-151494819D01*
X77225000Y-151494819D02*
X77367857Y-151542438D01*
X77367857Y-151542438D02*
X77463095Y-151637676D01*
X77463095Y-151637676D02*
X77510714Y-151732914D01*
X77510714Y-151732914D02*
X77558333Y-151923390D01*
X77558333Y-151923390D02*
X77558333Y-152066247D01*
X77558333Y-152066247D02*
X77510714Y-152256723D01*
X77510714Y-152256723D02*
X77463095Y-152351961D01*
X77463095Y-152351961D02*
X77367857Y-152447200D01*
X77367857Y-152447200D02*
X77225000Y-152494819D01*
X77225000Y-152494819D02*
X76986905Y-152494819D01*
X77891667Y-151494819D02*
X78510714Y-151494819D01*
X78510714Y-151494819D02*
X78177381Y-151875771D01*
X78177381Y-151875771D02*
X78320238Y-151875771D01*
X78320238Y-151875771D02*
X78415476Y-151923390D01*
X78415476Y-151923390D02*
X78463095Y-151971009D01*
X78463095Y-151971009D02*
X78510714Y-152066247D01*
X78510714Y-152066247D02*
X78510714Y-152304342D01*
X78510714Y-152304342D02*
X78463095Y-152399580D01*
X78463095Y-152399580D02*
X78415476Y-152447200D01*
X78415476Y-152447200D02*
X78320238Y-152494819D01*
X78320238Y-152494819D02*
X78034524Y-152494819D01*
X78034524Y-152494819D02*
X77939286Y-152447200D01*
X77939286Y-152447200D02*
X77891667Y-152399580D01*
X92369642Y-66704819D02*
X92036309Y-66228628D01*
X91798214Y-66704819D02*
X91798214Y-65704819D01*
X91798214Y-65704819D02*
X92179166Y-65704819D01*
X92179166Y-65704819D02*
X92274404Y-65752438D01*
X92274404Y-65752438D02*
X92322023Y-65800057D01*
X92322023Y-65800057D02*
X92369642Y-65895295D01*
X92369642Y-65895295D02*
X92369642Y-66038152D01*
X92369642Y-66038152D02*
X92322023Y-66133390D01*
X92322023Y-66133390D02*
X92274404Y-66181009D01*
X92274404Y-66181009D02*
X92179166Y-66228628D01*
X92179166Y-66228628D02*
X91798214Y-66228628D01*
X93322023Y-66704819D02*
X92750595Y-66704819D01*
X93036309Y-66704819D02*
X93036309Y-65704819D01*
X93036309Y-65704819D02*
X92941071Y-65847676D01*
X92941071Y-65847676D02*
X92845833Y-65942914D01*
X92845833Y-65942914D02*
X92750595Y-65990533D01*
X93655357Y-65704819D02*
X94274404Y-65704819D01*
X94274404Y-65704819D02*
X93941071Y-66085771D01*
X93941071Y-66085771D02*
X94083928Y-66085771D01*
X94083928Y-66085771D02*
X94179166Y-66133390D01*
X94179166Y-66133390D02*
X94226785Y-66181009D01*
X94226785Y-66181009D02*
X94274404Y-66276247D01*
X94274404Y-66276247D02*
X94274404Y-66514342D01*
X94274404Y-66514342D02*
X94226785Y-66609580D01*
X94226785Y-66609580D02*
X94179166Y-66657200D01*
X94179166Y-66657200D02*
X94083928Y-66704819D01*
X94083928Y-66704819D02*
X93798214Y-66704819D01*
X93798214Y-66704819D02*
X93702976Y-66657200D01*
X93702976Y-66657200D02*
X93655357Y-66609580D01*
X131975595Y-72004819D02*
X131975595Y-72814342D01*
X131975595Y-72814342D02*
X132023214Y-72909580D01*
X132023214Y-72909580D02*
X132070833Y-72957200D01*
X132070833Y-72957200D02*
X132166071Y-73004819D01*
X132166071Y-73004819D02*
X132356547Y-73004819D01*
X132356547Y-73004819D02*
X132451785Y-72957200D01*
X132451785Y-72957200D02*
X132499404Y-72909580D01*
X132499404Y-72909580D02*
X132547023Y-72814342D01*
X132547023Y-72814342D02*
X132547023Y-72004819D01*
X132975595Y-72100057D02*
X133023214Y-72052438D01*
X133023214Y-72052438D02*
X133118452Y-72004819D01*
X133118452Y-72004819D02*
X133356547Y-72004819D01*
X133356547Y-72004819D02*
X133451785Y-72052438D01*
X133451785Y-72052438D02*
X133499404Y-72100057D01*
X133499404Y-72100057D02*
X133547023Y-72195295D01*
X133547023Y-72195295D02*
X133547023Y-72290533D01*
X133547023Y-72290533D02*
X133499404Y-72433390D01*
X133499404Y-72433390D02*
X132927976Y-73004819D01*
X132927976Y-73004819D02*
X133547023Y-73004819D01*
X77031905Y-129494819D02*
X77031905Y-128494819D01*
X77031905Y-128494819D02*
X77270000Y-128494819D01*
X77270000Y-128494819D02*
X77412857Y-128542438D01*
X77412857Y-128542438D02*
X77508095Y-128637676D01*
X77508095Y-128637676D02*
X77555714Y-128732914D01*
X77555714Y-128732914D02*
X77603333Y-128923390D01*
X77603333Y-128923390D02*
X77603333Y-129066247D01*
X77603333Y-129066247D02*
X77555714Y-129256723D01*
X77555714Y-129256723D02*
X77508095Y-129351961D01*
X77508095Y-129351961D02*
X77412857Y-129447200D01*
X77412857Y-129447200D02*
X77270000Y-129494819D01*
X77270000Y-129494819D02*
X77031905Y-129494819D01*
X77984286Y-128590057D02*
X78031905Y-128542438D01*
X78031905Y-128542438D02*
X78127143Y-128494819D01*
X78127143Y-128494819D02*
X78365238Y-128494819D01*
X78365238Y-128494819D02*
X78460476Y-128542438D01*
X78460476Y-128542438D02*
X78508095Y-128590057D01*
X78508095Y-128590057D02*
X78555714Y-128685295D01*
X78555714Y-128685295D02*
X78555714Y-128780533D01*
X78555714Y-128780533D02*
X78508095Y-128923390D01*
X78508095Y-128923390D02*
X77936667Y-129494819D01*
X77936667Y-129494819D02*
X78555714Y-129494819D01*
X122500058Y-82335088D02*
X122452439Y-82430326D01*
X122452439Y-82430326D02*
X122357201Y-82525564D01*
X122357201Y-82525564D02*
X122214343Y-82668421D01*
X122214343Y-82668421D02*
X122166724Y-82763659D01*
X122166724Y-82763659D02*
X122166724Y-82858897D01*
X122404820Y-82811278D02*
X122357201Y-82906516D01*
X122357201Y-82906516D02*
X122261962Y-83001754D01*
X122261962Y-83001754D02*
X122071486Y-83049373D01*
X122071486Y-83049373D02*
X121738153Y-83049373D01*
X121738153Y-83049373D02*
X121547677Y-83001754D01*
X121547677Y-83001754D02*
X121452439Y-82906516D01*
X121452439Y-82906516D02*
X121404820Y-82811278D01*
X121404820Y-82811278D02*
X121404820Y-82620802D01*
X121404820Y-82620802D02*
X121452439Y-82525564D01*
X121452439Y-82525564D02*
X121547677Y-82430326D01*
X121547677Y-82430326D02*
X121738153Y-82382707D01*
X121738153Y-82382707D02*
X122071486Y-82382707D01*
X122071486Y-82382707D02*
X122261962Y-82430326D01*
X122261962Y-82430326D02*
X122357201Y-82525564D01*
X122357201Y-82525564D02*
X122404820Y-82620802D01*
X122404820Y-82620802D02*
X122404820Y-82811278D01*
X122404820Y-81430326D02*
X122404820Y-82001754D01*
X122404820Y-81716040D02*
X121404820Y-81716040D01*
X121404820Y-81716040D02*
X121547677Y-81811278D01*
X121547677Y-81811278D02*
X121642915Y-81906516D01*
X121642915Y-81906516D02*
X121690534Y-82001754D01*
X118753020Y-83833699D02*
X118991115Y-83833699D01*
X118895877Y-84071794D02*
X118991115Y-83833699D01*
X118991115Y-83833699D02*
X118895877Y-83595604D01*
X119181591Y-83976556D02*
X118991115Y-83833699D01*
X118991115Y-83833699D02*
X119181591Y-83690842D01*
X118753020Y-83833699D02*
X118991115Y-83833699D01*
X118895877Y-84071794D02*
X118991115Y-83833699D01*
X118991115Y-83833699D02*
X118895877Y-83595604D01*
X119181591Y-83976556D02*
X118991115Y-83833699D01*
X118991115Y-83833699D02*
X119181591Y-83690842D01*
X138144405Y-112614819D02*
X138144405Y-111614819D01*
X138144405Y-111614819D02*
X138382500Y-111614819D01*
X138382500Y-111614819D02*
X138525357Y-111662438D01*
X138525357Y-111662438D02*
X138620595Y-111757676D01*
X138620595Y-111757676D02*
X138668214Y-111852914D01*
X138668214Y-111852914D02*
X138715833Y-112043390D01*
X138715833Y-112043390D02*
X138715833Y-112186247D01*
X138715833Y-112186247D02*
X138668214Y-112376723D01*
X138668214Y-112376723D02*
X138620595Y-112471961D01*
X138620595Y-112471961D02*
X138525357Y-112567200D01*
X138525357Y-112567200D02*
X138382500Y-112614819D01*
X138382500Y-112614819D02*
X138144405Y-112614819D01*
X139572976Y-111948152D02*
X139572976Y-112614819D01*
X139334881Y-111567200D02*
X139096786Y-112281485D01*
X139096786Y-112281485D02*
X139715833Y-112281485D01*
X85445833Y-110704819D02*
X85112500Y-110228628D01*
X84874405Y-110704819D02*
X84874405Y-109704819D01*
X84874405Y-109704819D02*
X85255357Y-109704819D01*
X85255357Y-109704819D02*
X85350595Y-109752438D01*
X85350595Y-109752438D02*
X85398214Y-109800057D01*
X85398214Y-109800057D02*
X85445833Y-109895295D01*
X85445833Y-109895295D02*
X85445833Y-110038152D01*
X85445833Y-110038152D02*
X85398214Y-110133390D01*
X85398214Y-110133390D02*
X85350595Y-110181009D01*
X85350595Y-110181009D02*
X85255357Y-110228628D01*
X85255357Y-110228628D02*
X84874405Y-110228628D01*
X86398214Y-110704819D02*
X85826786Y-110704819D01*
X86112500Y-110704819D02*
X86112500Y-109704819D01*
X86112500Y-109704819D02*
X86017262Y-109847676D01*
X86017262Y-109847676D02*
X85922024Y-109942914D01*
X85922024Y-109942914D02*
X85826786Y-109990533D01*
X131157142Y-94304819D02*
X130823809Y-93828628D01*
X130585714Y-94304819D02*
X130585714Y-93304819D01*
X130585714Y-93304819D02*
X130966666Y-93304819D01*
X130966666Y-93304819D02*
X131061904Y-93352438D01*
X131061904Y-93352438D02*
X131109523Y-93400057D01*
X131109523Y-93400057D02*
X131157142Y-93495295D01*
X131157142Y-93495295D02*
X131157142Y-93638152D01*
X131157142Y-93638152D02*
X131109523Y-93733390D01*
X131109523Y-93733390D02*
X131061904Y-93781009D01*
X131061904Y-93781009D02*
X130966666Y-93828628D01*
X130966666Y-93828628D02*
X130585714Y-93828628D01*
X132109523Y-94304819D02*
X131538095Y-94304819D01*
X131823809Y-94304819D02*
X131823809Y-93304819D01*
X131823809Y-93304819D02*
X131728571Y-93447676D01*
X131728571Y-93447676D02*
X131633333Y-93542914D01*
X131633333Y-93542914D02*
X131538095Y-93590533D01*
X132728571Y-93304819D02*
X132823809Y-93304819D01*
X132823809Y-93304819D02*
X132919047Y-93352438D01*
X132919047Y-93352438D02*
X132966666Y-93400057D01*
X132966666Y-93400057D02*
X133014285Y-93495295D01*
X133014285Y-93495295D02*
X133061904Y-93685771D01*
X133061904Y-93685771D02*
X133061904Y-93923866D01*
X133061904Y-93923866D02*
X133014285Y-94114342D01*
X133014285Y-94114342D02*
X132966666Y-94209580D01*
X132966666Y-94209580D02*
X132919047Y-94257200D01*
X132919047Y-94257200D02*
X132823809Y-94304819D01*
X132823809Y-94304819D02*
X132728571Y-94304819D01*
X132728571Y-94304819D02*
X132633333Y-94257200D01*
X132633333Y-94257200D02*
X132585714Y-94209580D01*
X132585714Y-94209580D02*
X132538095Y-94114342D01*
X132538095Y-94114342D02*
X132490476Y-93923866D01*
X132490476Y-93923866D02*
X132490476Y-93685771D01*
X132490476Y-93685771D02*
X132538095Y-93495295D01*
X132538095Y-93495295D02*
X132585714Y-93400057D01*
X132585714Y-93400057D02*
X132633333Y-93352438D01*
X132633333Y-93352438D02*
X132728571Y-93304819D01*
X77369405Y-104994819D02*
X77369405Y-103994819D01*
X77369405Y-103994819D02*
X77607500Y-103994819D01*
X77607500Y-103994819D02*
X77750357Y-104042438D01*
X77750357Y-104042438D02*
X77845595Y-104137676D01*
X77845595Y-104137676D02*
X77893214Y-104232914D01*
X77893214Y-104232914D02*
X77940833Y-104423390D01*
X77940833Y-104423390D02*
X77940833Y-104566247D01*
X77940833Y-104566247D02*
X77893214Y-104756723D01*
X77893214Y-104756723D02*
X77845595Y-104851961D01*
X77845595Y-104851961D02*
X77750357Y-104947200D01*
X77750357Y-104947200D02*
X77607500Y-104994819D01*
X77607500Y-104994819D02*
X77369405Y-104994819D01*
X78893214Y-104994819D02*
X78321786Y-104994819D01*
X78607500Y-104994819D02*
X78607500Y-103994819D01*
X78607500Y-103994819D02*
X78512262Y-104137676D01*
X78512262Y-104137676D02*
X78417024Y-104232914D01*
X78417024Y-104232914D02*
X78321786Y-104280533D01*
X86104819Y-64255357D02*
X85628628Y-64588690D01*
X86104819Y-64826785D02*
X85104819Y-64826785D01*
X85104819Y-64826785D02*
X85104819Y-64445833D01*
X85104819Y-64445833D02*
X85152438Y-64350595D01*
X85152438Y-64350595D02*
X85200057Y-64302976D01*
X85200057Y-64302976D02*
X85295295Y-64255357D01*
X85295295Y-64255357D02*
X85438152Y-64255357D01*
X85438152Y-64255357D02*
X85533390Y-64302976D01*
X85533390Y-64302976D02*
X85581009Y-64350595D01*
X85581009Y-64350595D02*
X85628628Y-64445833D01*
X85628628Y-64445833D02*
X85628628Y-64826785D01*
X86104819Y-63302976D02*
X86104819Y-63874404D01*
X86104819Y-63588690D02*
X85104819Y-63588690D01*
X85104819Y-63588690D02*
X85247676Y-63683928D01*
X85247676Y-63683928D02*
X85342914Y-63779166D01*
X85342914Y-63779166D02*
X85390533Y-63874404D01*
X85104819Y-62398214D02*
X85104819Y-62874404D01*
X85104819Y-62874404D02*
X85581009Y-62922023D01*
X85581009Y-62922023D02*
X85533390Y-62874404D01*
X85533390Y-62874404D02*
X85485771Y-62779166D01*
X85485771Y-62779166D02*
X85485771Y-62541071D01*
X85485771Y-62541071D02*
X85533390Y-62445833D01*
X85533390Y-62445833D02*
X85581009Y-62398214D01*
X85581009Y-62398214D02*
X85676247Y-62350595D01*
X85676247Y-62350595D02*
X85914342Y-62350595D01*
X85914342Y-62350595D02*
X86009580Y-62398214D01*
X86009580Y-62398214D02*
X86057200Y-62445833D01*
X86057200Y-62445833D02*
X86104819Y-62541071D01*
X86104819Y-62541071D02*
X86104819Y-62779166D01*
X86104819Y-62779166D02*
X86057200Y-62874404D01*
X86057200Y-62874404D02*
X86009580Y-62922023D01*
X92375595Y-73304819D02*
X92375595Y-74114342D01*
X92375595Y-74114342D02*
X92423214Y-74209580D01*
X92423214Y-74209580D02*
X92470833Y-74257200D01*
X92470833Y-74257200D02*
X92566071Y-74304819D01*
X92566071Y-74304819D02*
X92756547Y-74304819D01*
X92756547Y-74304819D02*
X92851785Y-74257200D01*
X92851785Y-74257200D02*
X92899404Y-74209580D01*
X92899404Y-74209580D02*
X92947023Y-74114342D01*
X92947023Y-74114342D02*
X92947023Y-73304819D01*
X93947023Y-74304819D02*
X93375595Y-74304819D01*
X93661309Y-74304819D02*
X93661309Y-73304819D01*
X93661309Y-73304819D02*
X93566071Y-73447676D01*
X93566071Y-73447676D02*
X93470833Y-73542914D01*
X93470833Y-73542914D02*
X93375595Y-73590533D01*
X131369642Y-120304819D02*
X131036309Y-119828628D01*
X130798214Y-120304819D02*
X130798214Y-119304819D01*
X130798214Y-119304819D02*
X131179166Y-119304819D01*
X131179166Y-119304819D02*
X131274404Y-119352438D01*
X131274404Y-119352438D02*
X131322023Y-119400057D01*
X131322023Y-119400057D02*
X131369642Y-119495295D01*
X131369642Y-119495295D02*
X131369642Y-119638152D01*
X131369642Y-119638152D02*
X131322023Y-119733390D01*
X131322023Y-119733390D02*
X131274404Y-119781009D01*
X131274404Y-119781009D02*
X131179166Y-119828628D01*
X131179166Y-119828628D02*
X130798214Y-119828628D01*
X132322023Y-120304819D02*
X131750595Y-120304819D01*
X132036309Y-120304819D02*
X132036309Y-119304819D01*
X132036309Y-119304819D02*
X131941071Y-119447676D01*
X131941071Y-119447676D02*
X131845833Y-119542914D01*
X131845833Y-119542914D02*
X131750595Y-119590533D01*
X133274404Y-120304819D02*
X132702976Y-120304819D01*
X132988690Y-120304819D02*
X132988690Y-119304819D01*
X132988690Y-119304819D02*
X132893452Y-119447676D01*
X132893452Y-119447676D02*
X132798214Y-119542914D01*
X132798214Y-119542914D02*
X132702976Y-119590533D01*
X80704819Y-64255357D02*
X80228628Y-64588690D01*
X80704819Y-64826785D02*
X79704819Y-64826785D01*
X79704819Y-64826785D02*
X79704819Y-64445833D01*
X79704819Y-64445833D02*
X79752438Y-64350595D01*
X79752438Y-64350595D02*
X79800057Y-64302976D01*
X79800057Y-64302976D02*
X79895295Y-64255357D01*
X79895295Y-64255357D02*
X80038152Y-64255357D01*
X80038152Y-64255357D02*
X80133390Y-64302976D01*
X80133390Y-64302976D02*
X80181009Y-64350595D01*
X80181009Y-64350595D02*
X80228628Y-64445833D01*
X80228628Y-64445833D02*
X80228628Y-64826785D01*
X80704819Y-63302976D02*
X80704819Y-63874404D01*
X80704819Y-63588690D02*
X79704819Y-63588690D01*
X79704819Y-63588690D02*
X79847676Y-63683928D01*
X79847676Y-63683928D02*
X79942914Y-63779166D01*
X79942914Y-63779166D02*
X79990533Y-63874404D01*
X79704819Y-62445833D02*
X79704819Y-62636309D01*
X79704819Y-62636309D02*
X79752438Y-62731547D01*
X79752438Y-62731547D02*
X79800057Y-62779166D01*
X79800057Y-62779166D02*
X79942914Y-62874404D01*
X79942914Y-62874404D02*
X80133390Y-62922023D01*
X80133390Y-62922023D02*
X80514342Y-62922023D01*
X80514342Y-62922023D02*
X80609580Y-62874404D01*
X80609580Y-62874404D02*
X80657200Y-62826785D01*
X80657200Y-62826785D02*
X80704819Y-62731547D01*
X80704819Y-62731547D02*
X80704819Y-62541071D01*
X80704819Y-62541071D02*
X80657200Y-62445833D01*
X80657200Y-62445833D02*
X80609580Y-62398214D01*
X80609580Y-62398214D02*
X80514342Y-62350595D01*
X80514342Y-62350595D02*
X80276247Y-62350595D01*
X80276247Y-62350595D02*
X80181009Y-62398214D01*
X80181009Y-62398214D02*
X80133390Y-62445833D01*
X80133390Y-62445833D02*
X80085771Y-62541071D01*
X80085771Y-62541071D02*
X80085771Y-62731547D01*
X80085771Y-62731547D02*
X80133390Y-62826785D01*
X80133390Y-62826785D02*
X80181009Y-62874404D01*
X80181009Y-62874404D02*
X80276247Y-62922023D01*
X85433333Y-97604819D02*
X85100000Y-97128628D01*
X84861905Y-97604819D02*
X84861905Y-96604819D01*
X84861905Y-96604819D02*
X85242857Y-96604819D01*
X85242857Y-96604819D02*
X85338095Y-96652438D01*
X85338095Y-96652438D02*
X85385714Y-96700057D01*
X85385714Y-96700057D02*
X85433333Y-96795295D01*
X85433333Y-96795295D02*
X85433333Y-96938152D01*
X85433333Y-96938152D02*
X85385714Y-97033390D01*
X85385714Y-97033390D02*
X85338095Y-97081009D01*
X85338095Y-97081009D02*
X85242857Y-97128628D01*
X85242857Y-97128628D02*
X84861905Y-97128628D01*
X85766667Y-96604819D02*
X86433333Y-96604819D01*
X86433333Y-96604819D02*
X86004762Y-97604819D01*
X131798333Y-107004819D02*
X131465000Y-106528628D01*
X131226905Y-107004819D02*
X131226905Y-106004819D01*
X131226905Y-106004819D02*
X131607857Y-106004819D01*
X131607857Y-106004819D02*
X131703095Y-106052438D01*
X131703095Y-106052438D02*
X131750714Y-106100057D01*
X131750714Y-106100057D02*
X131798333Y-106195295D01*
X131798333Y-106195295D02*
X131798333Y-106338152D01*
X131798333Y-106338152D02*
X131750714Y-106433390D01*
X131750714Y-106433390D02*
X131703095Y-106481009D01*
X131703095Y-106481009D02*
X131607857Y-106528628D01*
X131607857Y-106528628D02*
X131226905Y-106528628D01*
X132655476Y-106338152D02*
X132655476Y-107004819D01*
X132417381Y-105957200D02*
X132179286Y-106671485D01*
X132179286Y-106671485D02*
X132798333Y-106671485D01*
X131457142Y-143204819D02*
X131123809Y-142728628D01*
X130885714Y-143204819D02*
X130885714Y-142204819D01*
X130885714Y-142204819D02*
X131266666Y-142204819D01*
X131266666Y-142204819D02*
X131361904Y-142252438D01*
X131361904Y-142252438D02*
X131409523Y-142300057D01*
X131409523Y-142300057D02*
X131457142Y-142395295D01*
X131457142Y-142395295D02*
X131457142Y-142538152D01*
X131457142Y-142538152D02*
X131409523Y-142633390D01*
X131409523Y-142633390D02*
X131361904Y-142681009D01*
X131361904Y-142681009D02*
X131266666Y-142728628D01*
X131266666Y-142728628D02*
X130885714Y-142728628D01*
X132409523Y-143204819D02*
X131838095Y-143204819D01*
X132123809Y-143204819D02*
X132123809Y-142204819D01*
X132123809Y-142204819D02*
X132028571Y-142347676D01*
X132028571Y-142347676D02*
X131933333Y-142442914D01*
X131933333Y-142442914D02*
X131838095Y-142490533D01*
X132790476Y-142300057D02*
X132838095Y-142252438D01*
X132838095Y-142252438D02*
X132933333Y-142204819D01*
X132933333Y-142204819D02*
X133171428Y-142204819D01*
X133171428Y-142204819D02*
X133266666Y-142252438D01*
X133266666Y-142252438D02*
X133314285Y-142300057D01*
X133314285Y-142300057D02*
X133361904Y-142395295D01*
X133361904Y-142395295D02*
X133361904Y-142490533D01*
X133361904Y-142490533D02*
X133314285Y-142633390D01*
X133314285Y-142633390D02*
X132742857Y-143204819D01*
X132742857Y-143204819D02*
X133361904Y-143204819D01*
X93995714Y-51494819D02*
X93995714Y-50494819D01*
X93995714Y-50494819D02*
X94233809Y-50494819D01*
X94233809Y-50494819D02*
X94376666Y-50542438D01*
X94376666Y-50542438D02*
X94471904Y-50637676D01*
X94471904Y-50637676D02*
X94519523Y-50732914D01*
X94519523Y-50732914D02*
X94567142Y-50923390D01*
X94567142Y-50923390D02*
X94567142Y-51066247D01*
X94567142Y-51066247D02*
X94519523Y-51256723D01*
X94519523Y-51256723D02*
X94471904Y-51351961D01*
X94471904Y-51351961D02*
X94376666Y-51447200D01*
X94376666Y-51447200D02*
X94233809Y-51494819D01*
X94233809Y-51494819D02*
X93995714Y-51494819D01*
X95519523Y-51494819D02*
X94948095Y-51494819D01*
X95233809Y-51494819D02*
X95233809Y-50494819D01*
X95233809Y-50494819D02*
X95138571Y-50637676D01*
X95138571Y-50637676D02*
X95043333Y-50732914D01*
X95043333Y-50732914D02*
X94948095Y-50780533D01*
X95852857Y-50494819D02*
X96471904Y-50494819D01*
X96471904Y-50494819D02*
X96138571Y-50875771D01*
X96138571Y-50875771D02*
X96281428Y-50875771D01*
X96281428Y-50875771D02*
X96376666Y-50923390D01*
X96376666Y-50923390D02*
X96424285Y-50971009D01*
X96424285Y-50971009D02*
X96471904Y-51066247D01*
X96471904Y-51066247D02*
X96471904Y-51304342D01*
X96471904Y-51304342D02*
X96424285Y-51399580D01*
X96424285Y-51399580D02*
X96376666Y-51447200D01*
X96376666Y-51447200D02*
X96281428Y-51494819D01*
X96281428Y-51494819D02*
X95995714Y-51494819D01*
X95995714Y-51494819D02*
X95900476Y-51447200D01*
X95900476Y-51447200D02*
X95852857Y-51399580D01*
X119961009Y-125985714D02*
X120008628Y-125842857D01*
X120008628Y-125842857D02*
X120056247Y-125795238D01*
X120056247Y-125795238D02*
X120151485Y-125747619D01*
X120151485Y-125747619D02*
X120294342Y-125747619D01*
X120294342Y-125747619D02*
X120389580Y-125795238D01*
X120389580Y-125795238D02*
X120437200Y-125842857D01*
X120437200Y-125842857D02*
X120484819Y-125938095D01*
X120484819Y-125938095D02*
X120484819Y-126319047D01*
X120484819Y-126319047D02*
X119484819Y-126319047D01*
X119484819Y-126319047D02*
X119484819Y-125985714D01*
X119484819Y-125985714D02*
X119532438Y-125890476D01*
X119532438Y-125890476D02*
X119580057Y-125842857D01*
X119580057Y-125842857D02*
X119675295Y-125795238D01*
X119675295Y-125795238D02*
X119770533Y-125795238D01*
X119770533Y-125795238D02*
X119865771Y-125842857D01*
X119865771Y-125842857D02*
X119913390Y-125890476D01*
X119913390Y-125890476D02*
X119961009Y-125985714D01*
X119961009Y-125985714D02*
X119961009Y-126319047D01*
X119484819Y-125461904D02*
X119484819Y-124890476D01*
X120484819Y-125176190D02*
X119484819Y-125176190D01*
X120484819Y-124033333D02*
X120484819Y-124604761D01*
X120484819Y-124319047D02*
X119484819Y-124319047D01*
X119484819Y-124319047D02*
X119627676Y-124414285D01*
X119627676Y-124414285D02*
X119722914Y-124509523D01*
X119722914Y-124509523D02*
X119770533Y-124604761D01*
X113655533Y-85961904D02*
X113655533Y-84438095D01*
X114417438Y-85199999D02*
X112893628Y-85199999D01*
X137879580Y-76166666D02*
X137927200Y-76214285D01*
X137927200Y-76214285D02*
X137974819Y-76357142D01*
X137974819Y-76357142D02*
X137974819Y-76452380D01*
X137974819Y-76452380D02*
X137927200Y-76595237D01*
X137927200Y-76595237D02*
X137831961Y-76690475D01*
X137831961Y-76690475D02*
X137736723Y-76738094D01*
X137736723Y-76738094D02*
X137546247Y-76785713D01*
X137546247Y-76785713D02*
X137403390Y-76785713D01*
X137403390Y-76785713D02*
X137212914Y-76738094D01*
X137212914Y-76738094D02*
X137117676Y-76690475D01*
X137117676Y-76690475D02*
X137022438Y-76595237D01*
X137022438Y-76595237D02*
X136974819Y-76452380D01*
X136974819Y-76452380D02*
X136974819Y-76357142D01*
X136974819Y-76357142D02*
X137022438Y-76214285D01*
X137022438Y-76214285D02*
X137070057Y-76166666D01*
X136974819Y-75833332D02*
X136974819Y-75214285D01*
X136974819Y-75214285D02*
X137355771Y-75547618D01*
X137355771Y-75547618D02*
X137355771Y-75404761D01*
X137355771Y-75404761D02*
X137403390Y-75309523D01*
X137403390Y-75309523D02*
X137451009Y-75261904D01*
X137451009Y-75261904D02*
X137546247Y-75214285D01*
X137546247Y-75214285D02*
X137784342Y-75214285D01*
X137784342Y-75214285D02*
X137879580Y-75261904D01*
X137879580Y-75261904D02*
X137927200Y-75309523D01*
X137927200Y-75309523D02*
X137974819Y-75404761D01*
X137974819Y-75404761D02*
X137974819Y-75690475D01*
X137974819Y-75690475D02*
X137927200Y-75785713D01*
X137927200Y-75785713D02*
X137879580Y-75833332D01*
X127357142Y-88604819D02*
X127023809Y-88128628D01*
X126785714Y-88604819D02*
X126785714Y-87604819D01*
X126785714Y-87604819D02*
X127166666Y-87604819D01*
X127166666Y-87604819D02*
X127261904Y-87652438D01*
X127261904Y-87652438D02*
X127309523Y-87700057D01*
X127309523Y-87700057D02*
X127357142Y-87795295D01*
X127357142Y-87795295D02*
X127357142Y-87938152D01*
X127357142Y-87938152D02*
X127309523Y-88033390D01*
X127309523Y-88033390D02*
X127261904Y-88081009D01*
X127261904Y-88081009D02*
X127166666Y-88128628D01*
X127166666Y-88128628D02*
X126785714Y-88128628D01*
X128309523Y-88604819D02*
X127738095Y-88604819D01*
X128023809Y-88604819D02*
X128023809Y-87604819D01*
X128023809Y-87604819D02*
X127928571Y-87747676D01*
X127928571Y-87747676D02*
X127833333Y-87842914D01*
X127833333Y-87842914D02*
X127738095Y-87890533D01*
X128880952Y-88033390D02*
X128785714Y-87985771D01*
X128785714Y-87985771D02*
X128738095Y-87938152D01*
X128738095Y-87938152D02*
X128690476Y-87842914D01*
X128690476Y-87842914D02*
X128690476Y-87795295D01*
X128690476Y-87795295D02*
X128738095Y-87700057D01*
X128738095Y-87700057D02*
X128785714Y-87652438D01*
X128785714Y-87652438D02*
X128880952Y-87604819D01*
X128880952Y-87604819D02*
X129071428Y-87604819D01*
X129071428Y-87604819D02*
X129166666Y-87652438D01*
X129166666Y-87652438D02*
X129214285Y-87700057D01*
X129214285Y-87700057D02*
X129261904Y-87795295D01*
X129261904Y-87795295D02*
X129261904Y-87842914D01*
X129261904Y-87842914D02*
X129214285Y-87938152D01*
X129214285Y-87938152D02*
X129166666Y-87985771D01*
X129166666Y-87985771D02*
X129071428Y-88033390D01*
X129071428Y-88033390D02*
X128880952Y-88033390D01*
X128880952Y-88033390D02*
X128785714Y-88081009D01*
X128785714Y-88081009D02*
X128738095Y-88128628D01*
X128738095Y-88128628D02*
X128690476Y-88223866D01*
X128690476Y-88223866D02*
X128690476Y-88414342D01*
X128690476Y-88414342D02*
X128738095Y-88509580D01*
X128738095Y-88509580D02*
X128785714Y-88557200D01*
X128785714Y-88557200D02*
X128880952Y-88604819D01*
X128880952Y-88604819D02*
X129071428Y-88604819D01*
X129071428Y-88604819D02*
X129166666Y-88557200D01*
X129166666Y-88557200D02*
X129214285Y-88509580D01*
X129214285Y-88509580D02*
X129261904Y-88414342D01*
X129261904Y-88414342D02*
X129261904Y-88223866D01*
X129261904Y-88223866D02*
X129214285Y-88128628D01*
X129214285Y-88128628D02*
X129166666Y-88081009D01*
X129166666Y-88081009D02*
X129071428Y-88033390D01*
X138231905Y-136514819D02*
X138231905Y-135514819D01*
X138231905Y-135514819D02*
X138470000Y-135514819D01*
X138470000Y-135514819D02*
X138612857Y-135562438D01*
X138612857Y-135562438D02*
X138708095Y-135657676D01*
X138708095Y-135657676D02*
X138755714Y-135752914D01*
X138755714Y-135752914D02*
X138803333Y-135943390D01*
X138803333Y-135943390D02*
X138803333Y-136086247D01*
X138803333Y-136086247D02*
X138755714Y-136276723D01*
X138755714Y-136276723D02*
X138708095Y-136371961D01*
X138708095Y-136371961D02*
X138612857Y-136467200D01*
X138612857Y-136467200D02*
X138470000Y-136514819D01*
X138470000Y-136514819D02*
X138231905Y-136514819D01*
X139708095Y-135514819D02*
X139231905Y-135514819D01*
X139231905Y-135514819D02*
X139184286Y-135991009D01*
X139184286Y-135991009D02*
X139231905Y-135943390D01*
X139231905Y-135943390D02*
X139327143Y-135895771D01*
X139327143Y-135895771D02*
X139565238Y-135895771D01*
X139565238Y-135895771D02*
X139660476Y-135943390D01*
X139660476Y-135943390D02*
X139708095Y-135991009D01*
X139708095Y-135991009D02*
X139755714Y-136086247D01*
X139755714Y-136086247D02*
X139755714Y-136324342D01*
X139755714Y-136324342D02*
X139708095Y-136419580D01*
X139708095Y-136419580D02*
X139660476Y-136467200D01*
X139660476Y-136467200D02*
X139565238Y-136514819D01*
X139565238Y-136514819D02*
X139327143Y-136514819D01*
X139327143Y-136514819D02*
X139231905Y-136467200D01*
X139231905Y-136467200D02*
X139184286Y-136419580D01*
X123257142Y-74204819D02*
X122923809Y-73728628D01*
X122685714Y-74204819D02*
X122685714Y-73204819D01*
X122685714Y-73204819D02*
X123066666Y-73204819D01*
X123066666Y-73204819D02*
X123161904Y-73252438D01*
X123161904Y-73252438D02*
X123209523Y-73300057D01*
X123209523Y-73300057D02*
X123257142Y-73395295D01*
X123257142Y-73395295D02*
X123257142Y-73538152D01*
X123257142Y-73538152D02*
X123209523Y-73633390D01*
X123209523Y-73633390D02*
X123161904Y-73681009D01*
X123161904Y-73681009D02*
X123066666Y-73728628D01*
X123066666Y-73728628D02*
X122685714Y-73728628D01*
X124209523Y-74204819D02*
X123638095Y-74204819D01*
X123923809Y-74204819D02*
X123923809Y-73204819D01*
X123923809Y-73204819D02*
X123828571Y-73347676D01*
X123828571Y-73347676D02*
X123733333Y-73442914D01*
X123733333Y-73442914D02*
X123638095Y-73490533D01*
X124542857Y-73204819D02*
X125209523Y-73204819D01*
X125209523Y-73204819D02*
X124780952Y-74204819D01*
X131873333Y-155004819D02*
X131540000Y-154528628D01*
X131301905Y-155004819D02*
X131301905Y-154004819D01*
X131301905Y-154004819D02*
X131682857Y-154004819D01*
X131682857Y-154004819D02*
X131778095Y-154052438D01*
X131778095Y-154052438D02*
X131825714Y-154100057D01*
X131825714Y-154100057D02*
X131873333Y-154195295D01*
X131873333Y-154195295D02*
X131873333Y-154338152D01*
X131873333Y-154338152D02*
X131825714Y-154433390D01*
X131825714Y-154433390D02*
X131778095Y-154481009D01*
X131778095Y-154481009D02*
X131682857Y-154528628D01*
X131682857Y-154528628D02*
X131301905Y-154528628D01*
X132730476Y-154004819D02*
X132540000Y-154004819D01*
X132540000Y-154004819D02*
X132444762Y-154052438D01*
X132444762Y-154052438D02*
X132397143Y-154100057D01*
X132397143Y-154100057D02*
X132301905Y-154242914D01*
X132301905Y-154242914D02*
X132254286Y-154433390D01*
X132254286Y-154433390D02*
X132254286Y-154814342D01*
X132254286Y-154814342D02*
X132301905Y-154909580D01*
X132301905Y-154909580D02*
X132349524Y-154957200D01*
X132349524Y-154957200D02*
X132444762Y-155004819D01*
X132444762Y-155004819D02*
X132635238Y-155004819D01*
X132635238Y-155004819D02*
X132730476Y-154957200D01*
X132730476Y-154957200D02*
X132778095Y-154909580D01*
X132778095Y-154909580D02*
X132825714Y-154814342D01*
X132825714Y-154814342D02*
X132825714Y-154576247D01*
X132825714Y-154576247D02*
X132778095Y-154481009D01*
X132778095Y-154481009D02*
X132730476Y-154433390D01*
X132730476Y-154433390D02*
X132635238Y-154385771D01*
X132635238Y-154385771D02*
X132444762Y-154385771D01*
X132444762Y-154385771D02*
X132349524Y-154433390D01*
X132349524Y-154433390D02*
X132301905Y-154481009D01*
X132301905Y-154481009D02*
X132254286Y-154576247D01*
X131803333Y-130904819D02*
X131470000Y-130428628D01*
X131231905Y-130904819D02*
X131231905Y-129904819D01*
X131231905Y-129904819D02*
X131612857Y-129904819D01*
X131612857Y-129904819D02*
X131708095Y-129952438D01*
X131708095Y-129952438D02*
X131755714Y-130000057D01*
X131755714Y-130000057D02*
X131803333Y-130095295D01*
X131803333Y-130095295D02*
X131803333Y-130238152D01*
X131803333Y-130238152D02*
X131755714Y-130333390D01*
X131755714Y-130333390D02*
X131708095Y-130381009D01*
X131708095Y-130381009D02*
X131612857Y-130428628D01*
X131612857Y-130428628D02*
X131231905Y-130428628D01*
X132708095Y-129904819D02*
X132231905Y-129904819D01*
X132231905Y-129904819D02*
X132184286Y-130381009D01*
X132184286Y-130381009D02*
X132231905Y-130333390D01*
X132231905Y-130333390D02*
X132327143Y-130285771D01*
X132327143Y-130285771D02*
X132565238Y-130285771D01*
X132565238Y-130285771D02*
X132660476Y-130333390D01*
X132660476Y-130333390D02*
X132708095Y-130381009D01*
X132708095Y-130381009D02*
X132755714Y-130476247D01*
X132755714Y-130476247D02*
X132755714Y-130714342D01*
X132755714Y-130714342D02*
X132708095Y-130809580D01*
X132708095Y-130809580D02*
X132660476Y-130857200D01*
X132660476Y-130857200D02*
X132565238Y-130904819D01*
X132565238Y-130904819D02*
X132327143Y-130904819D01*
X132327143Y-130904819D02*
X132231905Y-130857200D01*
X132231905Y-130857200D02*
X132184286Y-130809580D01*
D11*
X115666667Y-58909800D02*
X115809524Y-58957419D01*
X115809524Y-58957419D02*
X116047619Y-58957419D01*
X116047619Y-58957419D02*
X116142857Y-58909800D01*
X116142857Y-58909800D02*
X116190476Y-58862180D01*
X116190476Y-58862180D02*
X116238095Y-58766942D01*
X116238095Y-58766942D02*
X116238095Y-58671704D01*
X116238095Y-58671704D02*
X116190476Y-58576466D01*
X116190476Y-58576466D02*
X116142857Y-58528847D01*
X116142857Y-58528847D02*
X116047619Y-58481228D01*
X116047619Y-58481228D02*
X115857143Y-58433609D01*
X115857143Y-58433609D02*
X115761905Y-58385990D01*
X115761905Y-58385990D02*
X115714286Y-58338371D01*
X115714286Y-58338371D02*
X115666667Y-58243133D01*
X115666667Y-58243133D02*
X115666667Y-58147895D01*
X115666667Y-58147895D02*
X115714286Y-58052657D01*
X115714286Y-58052657D02*
X115761905Y-58005038D01*
X115761905Y-58005038D02*
X115857143Y-57957419D01*
X115857143Y-57957419D02*
X116095238Y-57957419D01*
X116095238Y-57957419D02*
X116238095Y-58005038D01*
X116571429Y-57957419D02*
X116809524Y-58957419D01*
X116809524Y-58957419D02*
X117000000Y-58243133D01*
X117000000Y-58243133D02*
X117190476Y-58957419D01*
X117190476Y-58957419D02*
X117428572Y-57957419D01*
X118333333Y-58957419D02*
X117761905Y-58957419D01*
X118047619Y-58957419D02*
X118047619Y-57957419D01*
X118047619Y-57957419D02*
X117952381Y-58100276D01*
X117952381Y-58100276D02*
X117857143Y-58195514D01*
X117857143Y-58195514D02*
X117761905Y-58243133D01*
D10*
X125908207Y-70774580D02*
X125860588Y-70822200D01*
X125860588Y-70822200D02*
X125717731Y-70869819D01*
X125717731Y-70869819D02*
X125622493Y-70869819D01*
X125622493Y-70869819D02*
X125479636Y-70822200D01*
X125479636Y-70822200D02*
X125384398Y-70726961D01*
X125384398Y-70726961D02*
X125336779Y-70631723D01*
X125336779Y-70631723D02*
X125289160Y-70441247D01*
X125289160Y-70441247D02*
X125289160Y-70298390D01*
X125289160Y-70298390D02*
X125336779Y-70107914D01*
X125336779Y-70107914D02*
X125384398Y-70012676D01*
X125384398Y-70012676D02*
X125479636Y-69917438D01*
X125479636Y-69917438D02*
X125622493Y-69869819D01*
X125622493Y-69869819D02*
X125717731Y-69869819D01*
X125717731Y-69869819D02*
X125860588Y-69917438D01*
X125860588Y-69917438D02*
X125908207Y-69965057D01*
X126527255Y-69869819D02*
X126717731Y-69869819D01*
X126717731Y-69869819D02*
X126812969Y-69917438D01*
X126812969Y-69917438D02*
X126908207Y-70012676D01*
X126908207Y-70012676D02*
X126955826Y-70203152D01*
X126955826Y-70203152D02*
X126955826Y-70536485D01*
X126955826Y-70536485D02*
X126908207Y-70726961D01*
X126908207Y-70726961D02*
X126812969Y-70822200D01*
X126812969Y-70822200D02*
X126717731Y-70869819D01*
X126717731Y-70869819D02*
X126527255Y-70869819D01*
X126527255Y-70869819D02*
X126432017Y-70822200D01*
X126432017Y-70822200D02*
X126336779Y-70726961D01*
X126336779Y-70726961D02*
X126289160Y-70536485D01*
X126289160Y-70536485D02*
X126289160Y-70203152D01*
X126289160Y-70203152D02*
X126336779Y-70012676D01*
X126336779Y-70012676D02*
X126432017Y-69917438D01*
X126432017Y-69917438D02*
X126527255Y-69869819D01*
X127384398Y-70869819D02*
X127384398Y-69869819D01*
X127384398Y-69869819D02*
X127717731Y-70584104D01*
X127717731Y-70584104D02*
X128051064Y-69869819D01*
X128051064Y-69869819D02*
X128051064Y-70869819D01*
X137336779Y-54869819D02*
X137336779Y-53869819D01*
X137336779Y-53869819D02*
X137908207Y-54869819D01*
X137908207Y-54869819D02*
X137908207Y-53869819D01*
X138955826Y-54774580D02*
X138908207Y-54822200D01*
X138908207Y-54822200D02*
X138765350Y-54869819D01*
X138765350Y-54869819D02*
X138670112Y-54869819D01*
X138670112Y-54869819D02*
X138527255Y-54822200D01*
X138527255Y-54822200D02*
X138432017Y-54726961D01*
X138432017Y-54726961D02*
X138384398Y-54631723D01*
X138384398Y-54631723D02*
X138336779Y-54441247D01*
X138336779Y-54441247D02*
X138336779Y-54298390D01*
X138336779Y-54298390D02*
X138384398Y-54107914D01*
X138384398Y-54107914D02*
X138432017Y-54012676D01*
X138432017Y-54012676D02*
X138527255Y-53917438D01*
X138527255Y-53917438D02*
X138670112Y-53869819D01*
X138670112Y-53869819D02*
X138765350Y-53869819D01*
X138765350Y-53869819D02*
X138908207Y-53917438D01*
X138908207Y-53917438D02*
X138955826Y-53965057D01*
X137336779Y-60869819D02*
X137336779Y-59869819D01*
X137336779Y-59869819D02*
X137908207Y-60869819D01*
X137908207Y-60869819D02*
X137908207Y-59869819D01*
X138574874Y-59869819D02*
X138765350Y-59869819D01*
X138765350Y-59869819D02*
X138860588Y-59917438D01*
X138860588Y-59917438D02*
X138955826Y-60012676D01*
X138955826Y-60012676D02*
X139003445Y-60203152D01*
X139003445Y-60203152D02*
X139003445Y-60536485D01*
X139003445Y-60536485D02*
X138955826Y-60726961D01*
X138955826Y-60726961D02*
X138860588Y-60822200D01*
X138860588Y-60822200D02*
X138765350Y-60869819D01*
X138765350Y-60869819D02*
X138574874Y-60869819D01*
X138574874Y-60869819D02*
X138479636Y-60822200D01*
X138479636Y-60822200D02*
X138384398Y-60726961D01*
X138384398Y-60726961D02*
X138336779Y-60536485D01*
X138336779Y-60536485D02*
X138336779Y-60203152D01*
X138336779Y-60203152D02*
X138384398Y-60012676D01*
X138384398Y-60012676D02*
X138479636Y-59917438D01*
X138479636Y-59917438D02*
X138574874Y-59869819D01*
X84404819Y-72042857D02*
X83928628Y-72376190D01*
X84404819Y-72614285D02*
X83404819Y-72614285D01*
X83404819Y-72614285D02*
X83404819Y-72233333D01*
X83404819Y-72233333D02*
X83452438Y-72138095D01*
X83452438Y-72138095D02*
X83500057Y-72090476D01*
X83500057Y-72090476D02*
X83595295Y-72042857D01*
X83595295Y-72042857D02*
X83738152Y-72042857D01*
X83738152Y-72042857D02*
X83833390Y-72090476D01*
X83833390Y-72090476D02*
X83881009Y-72138095D01*
X83881009Y-72138095D02*
X83928628Y-72233333D01*
X83928628Y-72233333D02*
X83928628Y-72614285D01*
X84404819Y-71090476D02*
X84404819Y-71661904D01*
X84404819Y-71376190D02*
X83404819Y-71376190D01*
X83404819Y-71376190D02*
X83547676Y-71471428D01*
X83547676Y-71471428D02*
X83642914Y-71566666D01*
X83642914Y-71566666D02*
X83690533Y-71661904D01*
X83738152Y-70233333D02*
X84404819Y-70233333D01*
X83357200Y-70471428D02*
X84071485Y-70709523D01*
X84071485Y-70709523D02*
X84071485Y-70090476D01*
D12*
X86513748Y-83225000D02*
X87036252Y-83225000D01*
X86513748Y-81755000D02*
X87036252Y-81755000D01*
X86961252Y-86665000D02*
X86438748Y-86665000D01*
X86961252Y-88135000D02*
X86438748Y-88135000D01*
X85739564Y-145335000D02*
X85285436Y-145335000D01*
X85739564Y-143865000D02*
X85285436Y-143865000D01*
X85827064Y-122335000D02*
X85372936Y-122335000D01*
X85827064Y-120865000D02*
X85372936Y-120865000D01*
X85727064Y-132265000D02*
X85272936Y-132265000D01*
X85727064Y-133735000D02*
X85272936Y-133735000D01*
X85752064Y-155265000D02*
X85297936Y-155265000D01*
X85752064Y-156735000D02*
X85297936Y-156735000D01*
X141430000Y-157745000D02*
X141430000Y-154655000D01*
X135880000Y-156200000D02*
G75*
G02*
X141430000Y-154655170I2990000J0D01*
G01*
X141430000Y-157744830D02*
G75*
G02*
X135880000Y-156200000I-2560000J1544830D01*
G01*
X141370000Y-156200000D02*
G75*
G02*
X136370000Y-156200000I-2500000J0D01*
G01*
X136370000Y-156200000D02*
G75*
G02*
X141370000Y-156200000I2500000J0D01*
G01*
X75165000Y-154455000D02*
X75165000Y-157545000D01*
X75165000Y-154455170D02*
G75*
G02*
X80715000Y-156000000I2560000J-1544830D01*
G01*
X80715000Y-156000000D02*
G75*
G02*
X75165000Y-157544830I-2990000J0D01*
G01*
X80225000Y-156000000D02*
G75*
G02*
X75225000Y-156000000I-2500000J0D01*
G01*
X75225000Y-156000000D02*
G75*
G02*
X80225000Y-156000000I2500000J0D01*
G01*
X93239564Y-63865000D02*
X92785436Y-63865000D01*
X93239564Y-65335000D02*
X92785436Y-65335000D01*
X131827500Y-73390000D02*
X133647500Y-73390000D01*
X131827500Y-73440000D02*
X131827500Y-73390000D01*
X131827500Y-76510000D02*
X131827500Y-76460000D01*
X133647500Y-73390000D02*
X133647500Y-73440000D01*
X133647500Y-76460000D02*
X133647500Y-76510000D01*
X133647500Y-76510000D02*
X131827500Y-76510000D01*
X131287500Y-73440000D02*
X131047500Y-73110000D01*
X131527500Y-73110000D01*
X131287500Y-73440000D01*
G36*
X131287500Y-73440000D02*
G01*
X131047500Y-73110000D01*
X131527500Y-73110000D01*
X131287500Y-73440000D01*
G37*
X75210000Y-131455000D02*
X75210000Y-134545000D01*
X75210000Y-131455170D02*
G75*
G02*
X80760000Y-133000000I2560000J-1544830D01*
G01*
X80760000Y-133000000D02*
G75*
G02*
X75210000Y-134544830I-2990000J0D01*
G01*
X80270000Y-133000000D02*
G75*
G02*
X75270000Y-133000000I-2500000J0D01*
G01*
X75270000Y-133000000D02*
G75*
G02*
X80270000Y-133000000I2500000J0D01*
G01*
D13*
X123588301Y-83217750D02*
X123588301Y-81261950D01*
X120311701Y-81261950D02*
X120311701Y-83217750D01*
D12*
X141442500Y-109745000D02*
X141442500Y-106655000D01*
X135892500Y-108200000D02*
G75*
G02*
X141442500Y-106655170I2990000J0D01*
G01*
X141442500Y-109744830D02*
G75*
G02*
X135892500Y-108200000I-2560000J1544830D01*
G01*
X141382500Y-108200000D02*
G75*
G02*
X136382500Y-108200000I-2500000J0D01*
G01*
X136382500Y-108200000D02*
G75*
G02*
X141382500Y-108200000I2500000J0D01*
G01*
X85839564Y-109335000D02*
X85385436Y-109335000D01*
X85839564Y-107865000D02*
X85385436Y-107865000D01*
X131572936Y-94765000D02*
X132027064Y-94765000D01*
X131572936Y-96235000D02*
X132027064Y-96235000D01*
X75547500Y-106955000D02*
X75547500Y-110045000D01*
X75547500Y-106955170D02*
G75*
G02*
X81097500Y-108500000I2560000J-1544830D01*
G01*
X81097500Y-108500000D02*
G75*
G02*
X75547500Y-110044830I-2990000J0D01*
G01*
X80607500Y-108500000D02*
G75*
G02*
X75607500Y-108500000I-2500000J0D01*
G01*
X75607500Y-108500000D02*
G75*
G02*
X80607500Y-108500000I2500000J0D01*
G01*
X86565000Y-63839564D02*
X86565000Y-63385436D01*
X88035000Y-63839564D02*
X88035000Y-63385436D01*
X92227500Y-74690000D02*
X94047500Y-74690000D01*
X92227500Y-74740000D02*
X92227500Y-74690000D01*
X92227500Y-77810000D02*
X92227500Y-77760000D01*
X94047500Y-74690000D02*
X94047500Y-74740000D01*
X94047500Y-75860000D02*
X94047500Y-76640000D01*
X94047500Y-77760000D02*
X94047500Y-77810000D01*
X94047500Y-77810000D02*
X92227500Y-77810000D01*
X91687500Y-74740000D02*
X91447500Y-74410000D01*
X91927500Y-74410000D01*
X91687500Y-74740000D01*
G36*
X91687500Y-74740000D02*
G01*
X91447500Y-74410000D01*
X91927500Y-74410000D01*
X91687500Y-74740000D01*
G37*
X131785436Y-120765000D02*
X132239564Y-120765000D01*
X131785436Y-122235000D02*
X132239564Y-122235000D01*
X81165000Y-63839564D02*
X81165000Y-63385436D01*
X82635000Y-63839564D02*
X82635000Y-63385436D01*
X85827064Y-94765000D02*
X85372936Y-94765000D01*
X85827064Y-96235000D02*
X85372936Y-96235000D01*
X131737936Y-107465000D02*
X132192064Y-107465000D01*
X131737936Y-108935000D02*
X132192064Y-108935000D01*
X131872936Y-143665000D02*
X132327064Y-143665000D01*
X131872936Y-145135000D02*
X132327064Y-145135000D01*
X92650000Y-53455000D02*
X92650000Y-56545000D01*
X92650000Y-53455170D02*
G75*
G02*
X98200000Y-55000000I2560000J-1544830D01*
G01*
X98200000Y-55000000D02*
G75*
G02*
X92650000Y-56544830I-2990000J0D01*
G01*
X97710000Y-55000000D02*
G75*
G02*
X92710000Y-55000000I-2500000J0D01*
G01*
X92710000Y-55000000D02*
G75*
G02*
X97710000Y-55000000I2500000J0D01*
G01*
X97815000Y-86310000D02*
X104990000Y-86310000D01*
X97815000Y-164090000D02*
X97815000Y-86310000D01*
X104990000Y-164090000D02*
X97815000Y-164090000D01*
X112010000Y-86310000D02*
X119185000Y-86310000D01*
X119185000Y-86310000D02*
X119185000Y-164090000D01*
X119185000Y-164090000D02*
X112010000Y-164090000D01*
X138465000Y-76261252D02*
X138465000Y-75738748D01*
X139935000Y-76261252D02*
X139935000Y-75738748D01*
X128227064Y-87235000D02*
X127772936Y-87235000D01*
X128227064Y-85765000D02*
X127772936Y-85765000D01*
X141530000Y-133645000D02*
X141530000Y-130555000D01*
X135980000Y-132100000D02*
G75*
G02*
X141530000Y-130555170I2990000J0D01*
G01*
X141530000Y-133644830D02*
G75*
G02*
X135980000Y-132100000I-2560000J1544830D01*
G01*
X141470000Y-132100000D02*
G75*
G02*
X136470000Y-132100000I-2500000J0D01*
G01*
X136470000Y-132100000D02*
G75*
G02*
X141470000Y-132100000I2500000J0D01*
G01*
X123672936Y-74665000D02*
X124127064Y-74665000D01*
X123672936Y-76135000D02*
X124127064Y-76135000D01*
X131812936Y-155465000D02*
X132267064Y-155465000D01*
X131812936Y-156935000D02*
X132267064Y-156935000D01*
X131742936Y-131365000D02*
X132197064Y-131365000D01*
X131742936Y-132835000D02*
X132197064Y-132835000D01*
D11*
X103000000Y-51000000D02*
X103000000Y-67000000D01*
X130900000Y-51000000D02*
X103100000Y-51000000D01*
X130900000Y-51000000D02*
X130900000Y-67000000D01*
X130900000Y-67000000D02*
X103000000Y-67000000D01*
D12*
X84865000Y-71627064D02*
X84865000Y-71172936D01*
X86335000Y-71627064D02*
X86335000Y-71172936D01*
%LPC*%
D14*
X87725000Y-82490000D03*
X85825000Y-82490000D03*
D15*
X85750000Y-87400000D03*
X87650000Y-87400000D03*
D16*
X84600000Y-144600000D03*
X86425000Y-144600000D03*
X84687500Y-121600000D03*
X86512500Y-121600000D03*
X84587500Y-133000000D03*
X86412500Y-133000000D03*
X84612500Y-156000000D03*
X86437500Y-156000000D03*
D17*
X140140000Y-156200000D03*
D18*
X137600000Y-156200000D03*
D17*
X76455000Y-156000000D03*
D18*
X78995000Y-156000000D03*
D16*
X93925000Y-64600000D03*
X92100000Y-64600000D03*
D19*
X131600000Y-74000000D03*
X131600000Y-74950000D03*
X131600000Y-75900000D03*
X133875000Y-75900000D03*
X133875000Y-74950000D03*
X133875000Y-74000000D03*
D17*
X76500000Y-133000000D03*
D18*
X79040000Y-133000000D03*
D20*
X121000000Y-83579700D03*
X121950001Y-83579700D03*
X122900002Y-83579700D03*
X122900002Y-80900000D03*
X121950001Y-80900000D03*
X121000000Y-80900000D03*
D17*
X140152500Y-108200000D03*
D18*
X137612500Y-108200000D03*
D16*
X86525000Y-108600000D03*
X84700000Y-108600000D03*
D21*
X130887500Y-95500000D03*
X132712500Y-95500000D03*
D17*
X76837500Y-108500000D03*
D18*
X79377500Y-108500000D03*
D22*
X87300000Y-64525000D03*
X87300000Y-62700000D03*
D19*
X92000000Y-75300000D03*
X92000000Y-76250000D03*
X92000000Y-77200000D03*
X94275000Y-77200000D03*
X94275000Y-75300000D03*
D21*
X131100000Y-121500000D03*
X132925000Y-121500000D03*
D22*
X81900000Y-64525000D03*
X81900000Y-62700000D03*
D16*
X86512500Y-95500000D03*
X84687500Y-95500000D03*
D21*
X131052500Y-108200000D03*
X132877500Y-108200000D03*
X131187500Y-144400000D03*
X133012500Y-144400000D03*
D17*
X93940000Y-55000000D03*
D18*
X96480000Y-55000000D03*
D23*
X116500000Y-89070000D03*
D24*
X100500000Y-97580000D03*
X116500000Y-152820000D03*
D25*
X108500000Y-85510000D03*
X108500000Y-164890000D03*
D26*
X139200000Y-76950000D03*
X139200000Y-75050000D03*
D16*
X128912500Y-86500000D03*
X127087500Y-86500000D03*
D17*
X140240000Y-132100000D03*
D18*
X137700000Y-132100000D03*
D21*
X122987500Y-75400000D03*
X124812500Y-75400000D03*
X131127500Y-156200000D03*
X132952500Y-156200000D03*
X131057500Y-132100000D03*
X132882500Y-132100000D03*
D27*
X105900000Y-64150000D03*
X128000000Y-53850000D03*
D28*
X138000000Y-56000000D03*
X123000000Y-69900000D03*
X138000000Y-62000000D03*
D22*
X85600000Y-72312500D03*
X85600000Y-70487500D03*
D17*
X76500000Y-144600000D03*
D18*
X79040000Y-144600000D03*
D29*
X80580000Y-53100000D03*
X80580000Y-56900000D03*
X89220000Y-53100000D03*
X89220000Y-56900000D03*
D17*
X140240000Y-144400000D03*
D18*
X137700000Y-144400000D03*
D17*
X140200000Y-121500000D03*
D18*
X137660000Y-121500000D03*
D17*
X76900000Y-95500000D03*
D18*
X79440000Y-95500000D03*
D17*
X76625000Y-121600000D03*
D18*
X79165000Y-121600000D03*
D17*
X140270000Y-95500000D03*
D18*
X137730000Y-95500000D03*
%LPD*%
M02*
