G04 #@! TF.GenerationSoftware,KiCad,Pcbnew,10.0.3*
G04 #@! TF.CreationDate,2026-09-25T22:19:13-04:00*
G04 #@! TF.ProjectId,RPI Beacon,52504920-4265-4616-936f-6e2e6b696361,rev?*
G04 #@! TF.SameCoordinates,Original*
G04 #@! TF.FileFunction,Soldermask,Bot*
G04 #@! TF.FilePolarity,Negative*
%FSLAX46Y46*%
G04 Gerber Fmt 4.6, Leading zero omitted, Abs format (unit mm)*
G04 Created by KiCad (PCBNEW 10.0.3) date 2026-09-25 22:19:13*
%MOMM*%
%LPD*%
G01*
G04 APERTURE LIST*
G04 Aperture macros list*
%AMRoundRect*
0 Rectangle with rounded corners*
0 $1 Rounding radius*
0 $2 $3 $4 $5 $6 $7 $8 $9 X,Y pos of 4 corners*
0 Add a 4 corners polygon primitive as box body*
4,1,4,$2,$3,$4,$5,$6,$7,$8,$9,$2,$3,0*
0 Add four circle primitives for the rounded corners*
1,1,$1+$1,$2,$3*
1,1,$1+$1,$4,$5*
1,1,$1+$1,$6,$7*
1,1,$1+$1,$8,$9*
0 Add four rect primitives between the rounded corners*
20,1,$1+$1,$2,$3,$4,$5,0*
20,1,$1+$1,$4,$5,$6,$7,0*
20,1,$1+$1,$6,$7,$8,$9,0*
20,1,$1+$1,$8,$9,$2,$3,0*%
G04 Aperture macros list end*
%ADD10R,1.800000X1.800000*%
%ADD11C,1.800000*%
%ADD12C,2.390000*%
%ADD13C,3.450000*%
%ADD14C,5.500000*%
%ADD15C,2.000000*%
%ADD16RoundRect,0.175000X-0.175000X-0.425000X0.175000X-0.425000X0.175000X0.425000X-0.175000X0.425000X0*%
%ADD17RoundRect,0.190000X0.190000X0.410000X-0.190000X0.410000X-0.190000X-0.410000X0.190000X-0.410000X0*%
%ADD18RoundRect,0.200000X0.200000X0.400000X-0.200000X0.400000X-0.200000X-0.400000X0.200000X-0.400000X0*%
%ADD19RoundRect,0.175000X0.175000X0.425000X-0.175000X0.425000X-0.175000X-0.425000X0.175000X-0.425000X0*%
%ADD20RoundRect,0.190000X-0.190000X-0.410000X0.190000X-0.410000X0.190000X0.410000X-0.190000X0.410000X0*%
%ADD21RoundRect,0.200000X-0.200000X-0.400000X0.200000X-0.400000X0.200000X0.400000X-0.200000X0.400000X0*%
%ADD22O,1.100000X1.700000*%
G04 APERTURE END LIST*
D10*
X140140000Y-156200000D03*
D11*
X137600000Y-156200000D03*
D10*
X76455000Y-156000000D03*
D11*
X78995000Y-156000000D03*
D10*
X76500000Y-133000000D03*
D11*
X79040000Y-133000000D03*
D10*
X140152500Y-108200000D03*
D11*
X137612500Y-108200000D03*
D10*
X76837500Y-108500000D03*
D11*
X79377500Y-108500000D03*
D10*
X93940000Y-55000000D03*
D11*
X96480000Y-55000000D03*
D12*
X116500000Y-89070000D03*
D13*
X100500000Y-97580000D03*
X116500000Y-152820000D03*
D10*
X140240000Y-132100000D03*
D11*
X137700000Y-132100000D03*
D14*
X105900000Y-64150000D03*
X128000000Y-53850000D03*
D15*
X138000000Y-56000000D03*
X123000000Y-69900000D03*
X138000000Y-62000000D03*
D10*
X76500000Y-144600000D03*
D11*
X79040000Y-144600000D03*
D16*
X84400000Y-56980000D03*
D17*
X86420000Y-56980000D03*
D18*
X87650000Y-56980000D03*
D19*
X85400000Y-56980000D03*
D20*
X83380000Y-56980000D03*
D21*
X82150000Y-56980000D03*
D22*
X80580000Y-53100000D03*
X80580000Y-56900000D03*
X89220000Y-53100000D03*
X89220000Y-56900000D03*
D10*
X140240000Y-144400000D03*
D11*
X137700000Y-144400000D03*
D10*
X140200000Y-121500000D03*
D11*
X137660000Y-121500000D03*
D10*
X76900000Y-95500000D03*
D11*
X79440000Y-95500000D03*
D10*
X76625000Y-121600000D03*
D11*
X79165000Y-121600000D03*
D10*
X140270000Y-95500000D03*
D11*
X137730000Y-95500000D03*
M02*
