M48
; DRILL file KiCad 10.0.3 date 2026-09-25T22:19:21
; FORMAT={-:-/ absolute / metric / decimal}
; #@! TF.CreationDate,2026-09-25T22:19:21-04:00
; #@! TF.GenerationSoftware,Kicad,Pcbnew,10.0.3
; #@! TF.FileFunction,Plated,1,2,PTH
FMAT,2
METRIC
; #@! TA.AperFunction,Plated,PTH,ViaDrill
T1C0.400
; #@! TA.AperFunction,Plated,PTH,ComponentDrill
T2C0.600
; #@! TA.AperFunction,Plated,PTH,ComponentDrill
T3C0.900
; #@! TA.AperFunction,Plated,PTH,ComponentDrill
T4C1.100
; #@! TA.AperFunction,Plated,PTH,ComponentDrill
T5C3.200
%
G90
G05
T1
X83.35Y-57.0
X84.3Y-59.9
X84.7Y-64.525
X85.5Y-59.9
X86.45Y-56.98
X87.4Y-59.6
X87.65Y-56.98
X89.1Y-76.25
X89.8Y-60.9
X89.8Y-66.2
X90.3Y-72.0
X91.1Y-82.4
X93.5Y-82.4
X97.6Y-77.3
X117.0Y-79.5
X118.6Y-81.1
X121.0Y-94.0
X121.0Y-97.0
X124.124Y-86.076
X125.998Y-75.598
X127.6Y-77.4
X129.812Y-75.9
X130.9Y-78.4
X130.9Y-89.5
X130.9Y-91.9
X139.3Y-79.3
X141.3Y-72.9
X142.8Y-77.3
T3
X76.455Y-156.0
X76.5Y-133.0
X76.5Y-144.6
X76.625Y-121.6
X76.837Y-108.5
X76.9Y-95.5
X78.995Y-156.0
X79.04Y-133.0
X79.04Y-144.6
X79.165Y-121.6
X79.377Y-108.5
X79.44Y-95.5
X93.94Y-55.0
X96.48Y-55.0
X137.6Y-156.2
X137.612Y-108.2
X137.66Y-121.5
X137.7Y-132.1
X137.7Y-144.4
X137.73Y-95.5
X140.14Y-156.2
X140.153Y-108.2
X140.2Y-121.5
X140.24Y-132.1
X140.24Y-144.4
X140.27Y-95.5
T4
X123.0Y-69.9
X138.0Y-56.0
X138.0Y-62.0
T5
X105.9Y-64.15
X128.0Y-53.85
T2
X80.58Y-52.8G85X80.58Y-53.4
G05
X80.58Y-56.6G85X80.58Y-57.2
G05
X89.22Y-52.8G85X89.22Y-53.4
G05
X89.22Y-56.6G85X89.22Y-57.2
G05
M30
