G04 #@! TF.GenerationSoftware,KiCad,Pcbnew,10.0.3*
G04 #@! TF.CreationDate,2026-09-25T22:19:13-04:00*
G04 #@! TF.ProjectId,RPI Beacon,52504920-4265-4616-936f-6e2e6b696361,rev?*
G04 #@! TF.SameCoordinates,Original*
G04 #@! TF.FileFunction,Soldermask,Top*
G04 #@! TF.FilePolarity,Negative*
%FSLAX46Y46*%
G04 Gerber Fmt 4.6, Leading zero omitted, Abs format (unit mm)*
G04 Created by KiCad (PCBNEW 10.0.3) date 2026-09-25 22:19:13*
%MOMM*%
%LPD*%
G01*
G04 APERTURE LIST*
G04 Aperture macros list*
%AMRoundRect*
0 Rectangle with rounded corners*
0 $1 Rounding radius*
0 $2 $3 $4 $5 $6 $7 $8 $9 X,Y pos of 4 corners*
0 Add a 4 corners polygon primitive as box body*
4,1,4,$2,$3,$4,$5,$6,$7,$8,$9,$2,$3,0*
0 Add four circle primitives for the rounded corners*
1,1,$1+$1,$2,$3*
1,1,$1+$1,$4,$5*
1,1,$1+$1,$6,$7*
1,1,$1+$1,$8,$9*
0 Add four rect primitives between the rounded corners*
20,1,$1+$1,$2,$3,$4,$5,0*
20,1,$1+$1,$4,$5,$6,$7,0*
20,1,$1+$1,$6,$7,$8,$9,0*
20,1,$1+$1,$8,$9,$2,$3,0*%
G04 Aperture macros list end*
%ADD10RoundRect,0.250000X-0.250000X-0.475000X0.250000X-0.475000X0.250000X0.475000X-0.250000X0.475000X0*%
%ADD11RoundRect,0.250000X0.250000X0.475000X-0.250000X0.475000X-0.250000X-0.475000X0.250000X-0.475000X0*%
%ADD12RoundRect,0.250000X0.262500X0.450000X-0.262500X0.450000X-0.262500X-0.450000X0.262500X-0.450000X0*%
%ADD13R,1.800000X1.800000*%
%ADD14C,1.800000*%
%ADD15RoundRect,0.150000X-0.512500X-0.150000X0.512500X-0.150000X0.512500X0.150000X-0.512500X0.150000X0*%
%ADD16R,0.558800X0.977900*%
%ADD17RoundRect,0.250000X-0.262500X-0.450000X0.262500X-0.450000X0.262500X0.450000X-0.262500X0.450000X0*%
%ADD18RoundRect,0.250000X0.450000X-0.262500X0.450000X0.262500X-0.450000X0.262500X-0.450000X-0.262500X0*%
%ADD19C,2.390000*%
%ADD20C,3.450000*%
%ADD21RoundRect,0.250003X-2.999997X3.499997X-2.999997X-3.499997X2.999997X-3.499997X2.999997X3.499997X0*%
%ADD22RoundRect,0.250000X0.475000X-0.250000X0.475000X0.250000X-0.475000X0.250000X-0.475000X-0.250000X0*%
%ADD23C,5.500000*%
%ADD24C,2.000000*%
%ADD25O,1.100000X1.700000*%
G04 APERTURE END LIST*
D10*
X87725000Y-82490000D03*
X85825000Y-82490000D03*
D11*
X85750000Y-87400000D03*
X87650000Y-87400000D03*
D12*
X84600000Y-144600000D03*
X86425000Y-144600000D03*
X84687500Y-121600000D03*
X86512500Y-121600000D03*
X84587500Y-133000000D03*
X86412500Y-133000000D03*
X84612500Y-156000000D03*
X86437500Y-156000000D03*
D13*
X140140000Y-156200000D03*
D14*
X137600000Y-156200000D03*
D13*
X76455000Y-156000000D03*
D14*
X78995000Y-156000000D03*
D12*
X93925000Y-64600000D03*
X92100000Y-64600000D03*
D15*
X131600000Y-74000000D03*
X131600000Y-74950000D03*
X131600000Y-75900000D03*
X133875000Y-75900000D03*
X133875000Y-74950000D03*
X133875000Y-74000000D03*
D13*
X76500000Y-133000000D03*
D14*
X79040000Y-133000000D03*
D16*
X121000000Y-83579700D03*
X121950001Y-83579700D03*
X122900002Y-83579700D03*
X122900002Y-80900000D03*
X121950001Y-80900000D03*
X121000000Y-80900000D03*
D13*
X140152500Y-108200000D03*
D14*
X137612500Y-108200000D03*
D12*
X86525000Y-108600000D03*
X84700000Y-108600000D03*
D17*
X130887500Y-95500000D03*
X132712500Y-95500000D03*
D13*
X76837500Y-108500000D03*
D14*
X79377500Y-108500000D03*
D18*
X87300000Y-64525000D03*
X87300000Y-62700000D03*
D15*
X92000000Y-75300000D03*
X92000000Y-76250000D03*
X92000000Y-77200000D03*
X94275000Y-77200000D03*
X94275000Y-75300000D03*
D17*
X131100000Y-121500000D03*
X132925000Y-121500000D03*
D18*
X81900000Y-64525000D03*
X81900000Y-62700000D03*
D12*
X86512500Y-95500000D03*
X84687500Y-95500000D03*
D17*
X131052500Y-108200000D03*
X132877500Y-108200000D03*
X131187500Y-144400000D03*
X133012500Y-144400000D03*
D13*
X93940000Y-55000000D03*
D14*
X96480000Y-55000000D03*
D19*
X116500000Y-89070000D03*
D20*
X100500000Y-97580000D03*
X116500000Y-152820000D03*
D21*
X108500000Y-85510000D03*
X108500000Y-164890000D03*
D22*
X139200000Y-76950000D03*
X139200000Y-75050000D03*
D12*
X128912500Y-86500000D03*
X127087500Y-86500000D03*
D13*
X140240000Y-132100000D03*
D14*
X137700000Y-132100000D03*
D17*
X122987500Y-75400000D03*
X124812500Y-75400000D03*
X131127500Y-156200000D03*
X132952500Y-156200000D03*
X131057500Y-132100000D03*
X132882500Y-132100000D03*
D23*
X105900000Y-64150000D03*
X128000000Y-53850000D03*
D24*
X138000000Y-56000000D03*
X123000000Y-69900000D03*
X138000000Y-62000000D03*
D18*
X85600000Y-72312500D03*
X85600000Y-70487500D03*
D13*
X76500000Y-144600000D03*
D14*
X79040000Y-144600000D03*
D25*
X80580000Y-53100000D03*
X80580000Y-56900000D03*
X89220000Y-53100000D03*
X89220000Y-56900000D03*
D13*
X140240000Y-144400000D03*
D14*
X137700000Y-144400000D03*
D13*
X140200000Y-121500000D03*
D14*
X137660000Y-121500000D03*
D13*
X76900000Y-95500000D03*
D14*
X79440000Y-95500000D03*
D13*
X76625000Y-121600000D03*
D14*
X79165000Y-121600000D03*
D13*
X140270000Y-95500000D03*
D14*
X137730000Y-95500000D03*
M02*
