G04 #@! TF.GenerationSoftware,KiCad,Pcbnew,10.0.3*
G04 #@! TF.CreationDate,2026-09-25T22:19:13-04:00*
G04 #@! TF.ProjectId,RPI Beacon,52504920-4265-4616-936f-6e2e6b696361,rev?*
G04 #@! TF.SameCoordinates,Original*
G04 #@! TF.FileFunction,Copper,L2,Bot*
G04 #@! TF.FilePolarity,Positive*
%FSLAX46Y46*%
G04 Gerber Fmt 4.6, Leading zero omitted, Abs format (unit mm)*
G04 Created by KiCad (PCBNEW 10.0.3) date 2026-09-25 22:19:13*
%MOMM*%
%LPD*%
G01*
G04 APERTURE LIST*
G04 Aperture macros list*
%AMRoundRect*
0 Rectangle with rounded corners*
0 $1 Rounding radius*
0 $2 $3 $4 $5 $6 $7 $8 $9 X,Y pos of 4 corners*
0 Add a 4 corners polygon primitive as box body*
4,1,4,$2,$3,$4,$5,$6,$7,$8,$9,$2,$3,0*
0 Add four circle primitives for the rounded corners*
1,1,$1+$1,$2,$3*
1,1,$1+$1,$4,$5*
1,1,$1+$1,$6,$7*
1,1,$1+$1,$8,$9*
0 Add four rect primitives between the rounded corners*
20,1,$1+$1,$2,$3,$4,$5,0*
20,1,$1+$1,$4,$5,$6,$7,0*
20,1,$1+$1,$6,$7,$8,$9,0*
20,1,$1+$1,$8,$9,$2,$3,0*%
G04 Aperture macros list end*
G04 #@! TA.AperFunction,ComponentPad*
%ADD10R,1.800000X1.800000*%
G04 #@! TD*
G04 #@! TA.AperFunction,ComponentPad*
%ADD11C,1.800000*%
G04 #@! TD*
G04 #@! TA.AperFunction,ComponentPad*
%ADD12C,5.500000*%
G04 #@! TD*
G04 #@! TA.AperFunction,ComponentPad*
%ADD13C,2.000000*%
G04 #@! TD*
G04 #@! TA.AperFunction,SMDPad,CuDef*
%ADD14RoundRect,0.175000X-0.175000X-0.425000X0.175000X-0.425000X0.175000X0.425000X-0.175000X0.425000X0*%
G04 #@! TD*
G04 #@! TA.AperFunction,SMDPad,CuDef*
%ADD15RoundRect,0.190000X0.190000X0.410000X-0.190000X0.410000X-0.190000X-0.410000X0.190000X-0.410000X0*%
G04 #@! TD*
G04 #@! TA.AperFunction,SMDPad,CuDef*
%ADD16RoundRect,0.200000X0.200000X0.400000X-0.200000X0.400000X-0.200000X-0.400000X0.200000X-0.400000X0*%
G04 #@! TD*
G04 #@! TA.AperFunction,SMDPad,CuDef*
%ADD17RoundRect,0.175000X0.175000X0.425000X-0.175000X0.425000X-0.175000X-0.425000X0.175000X-0.425000X0*%
G04 #@! TD*
G04 #@! TA.AperFunction,SMDPad,CuDef*
%ADD18RoundRect,0.190000X-0.190000X-0.410000X0.190000X-0.410000X0.190000X0.410000X-0.190000X0.410000X0*%
G04 #@! TD*
G04 #@! TA.AperFunction,SMDPad,CuDef*
%ADD19RoundRect,0.200000X-0.200000X-0.400000X0.200000X-0.400000X0.200000X0.400000X-0.200000X0.400000X0*%
G04 #@! TD*
G04 #@! TA.AperFunction,ComponentPad*
%ADD20O,1.100000X1.700000*%
G04 #@! TD*
G04 #@! TA.AperFunction,ViaPad*
%ADD21C,0.800000*%
G04 #@! TD*
G04 #@! TA.AperFunction,Conductor*
%ADD22C,0.400000*%
G04 #@! TD*
G04 APERTURE END LIST*
D10*
X140140000Y-156200000D03*
D11*
X137600000Y-156200000D03*
D10*
X76455000Y-156000000D03*
D11*
X78995000Y-156000000D03*
D10*
X76500000Y-133000000D03*
D11*
X79040000Y-133000000D03*
D10*
X140152500Y-108200000D03*
D11*
X137612500Y-108200000D03*
D10*
X76837500Y-108500000D03*
D11*
X79377500Y-108500000D03*
D10*
X93940000Y-55000000D03*
D11*
X96480000Y-55000000D03*
D10*
X140240000Y-132100000D03*
D11*
X137700000Y-132100000D03*
D12*
X105900000Y-64150000D03*
X128000000Y-53850000D03*
D13*
X138000000Y-56000000D03*
X123000000Y-69900000D03*
X138000000Y-62000000D03*
D10*
X76500000Y-144600000D03*
D11*
X79040000Y-144600000D03*
D14*
X84400000Y-56980000D03*
D15*
X86420000Y-56980000D03*
D16*
X87650000Y-56980000D03*
D17*
X85400000Y-56980000D03*
D18*
X83380000Y-56980000D03*
D19*
X82150000Y-56980000D03*
D20*
X80580000Y-53100000D03*
X80580000Y-56900000D03*
X89220000Y-53100000D03*
X89220000Y-56900000D03*
D10*
X140240000Y-144400000D03*
D11*
X137700000Y-144400000D03*
D10*
X140200000Y-121500000D03*
D11*
X137660000Y-121500000D03*
D10*
X76900000Y-95500000D03*
D11*
X79440000Y-95500000D03*
D10*
X76625000Y-121600000D03*
D11*
X79165000Y-121600000D03*
D10*
X140270000Y-95500000D03*
D11*
X137730000Y-95500000D03*
D21*
X97600000Y-77300000D03*
X87400000Y-59600000D03*
X86450000Y-56980000D03*
X83350000Y-57000000D03*
X84700000Y-64525000D03*
X87650000Y-56980000D03*
X85500000Y-59900000D03*
X84300000Y-59900000D03*
X89800000Y-66200000D03*
X89800000Y-60900000D03*
X89100000Y-76250000D03*
X90300000Y-72000000D03*
X118600000Y-81100000D03*
X117000000Y-79500000D03*
X141300000Y-72900000D03*
X130900000Y-78400000D03*
X130900000Y-89500000D03*
X130900000Y-91900000D03*
X93500000Y-82400000D03*
X91100000Y-82400000D03*
X139300000Y-79300000D03*
X125997918Y-75597918D03*
X127600000Y-77400000D03*
X129812500Y-75900000D03*
X142800000Y-77300000D03*
X124123754Y-86076246D03*
X121000000Y-94000000D03*
X121000000Y-97000000D03*
D22*
X97600000Y-64400000D02*
X97600000Y-77300000D01*
X91070000Y-57870000D02*
X97600000Y-64400000D01*
X91070000Y-57870000D02*
X93940000Y-55000000D01*
X87400000Y-59600000D02*
X89340000Y-59600000D01*
X89340000Y-59600000D02*
X91070000Y-57870000D01*
X83370000Y-56980000D02*
X83350000Y-57000000D01*
X83380000Y-56980000D02*
X83370000Y-56980000D01*
X84700000Y-62000000D02*
X84700000Y-64525000D01*
X82150000Y-59450000D02*
X84700000Y-62000000D01*
X82150000Y-56980000D02*
X82150000Y-59450000D01*
X80660000Y-56980000D02*
X80580000Y-56900000D01*
X82150000Y-56980000D02*
X80660000Y-56980000D01*
X85500000Y-59900000D02*
X85400000Y-59800000D01*
X85400000Y-59800000D02*
X85400000Y-56980000D01*
X84300000Y-59900000D02*
X84400000Y-59800000D01*
X84400000Y-59800000D02*
X84400000Y-56980000D01*
X89800000Y-66200000D02*
X89800000Y-60900000D01*
X89100000Y-73200000D02*
X89100000Y-76250000D01*
X90300000Y-72000000D02*
X89100000Y-73200000D01*
X117000000Y-79500000D02*
X118600000Y-81100000D01*
X130900000Y-78400000D02*
X136400000Y-72900000D01*
X130900000Y-91900000D02*
X130900000Y-89500000D01*
X136400000Y-72900000D02*
X141300000Y-72900000D01*
X91100000Y-82400000D02*
X93500000Y-82400000D01*
X125997918Y-77129288D02*
X128168630Y-79300000D01*
X125997918Y-75597918D02*
X125997918Y-77129288D01*
X128168630Y-79300000D02*
X139300000Y-79300000D01*
X129100000Y-75900000D02*
X127600000Y-77400000D01*
X129812500Y-75900000D02*
X129100000Y-75900000D01*
X124123754Y-86076246D02*
X129300000Y-80900000D01*
X142800000Y-80900000D02*
X142800000Y-77300000D01*
X129300000Y-80900000D02*
X142800000Y-80900000D01*
X121000000Y-97000000D02*
X121000000Y-94000000D01*
M02*
