G04 #@! TF.GenerationSoftware,KiCad,Pcbnew,10.0.3*
G04 #@! TF.CreationDate,2026-09-25T22:19:13-04:00*
G04 #@! TF.ProjectId,RPI Beacon,52504920-4265-4616-936f-6e2e6b696361,rev?*
G04 #@! TF.SameCoordinates,Original*
G04 #@! TF.FileFunction,Copper,L1,Top*
G04 #@! TF.FilePolarity,Positive*
%FSLAX46Y46*%
G04 Gerber Fmt 4.6, Leading zero omitted, Abs format (unit mm)*
G04 Created by KiCad (PCBNEW 10.0.3) date 2026-09-25 22:19:13*
%MOMM*%
%LPD*%
G01*
G04 APERTURE LIST*
G04 Aperture macros list*
%AMRoundRect*
0 Rectangle with rounded corners*
0 $1 Rounding radius*
0 $2 $3 $4 $5 $6 $7 $8 $9 X,Y pos of 4 corners*
0 Add a 4 corners polygon primitive as box body*
4,1,4,$2,$3,$4,$5,$6,$7,$8,$9,$2,$3,0*
0 Add four circle primitives for the rounded corners*
1,1,$1+$1,$2,$3*
1,1,$1+$1,$4,$5*
1,1,$1+$1,$6,$7*
1,1,$1+$1,$8,$9*
0 Add four rect primitives between the rounded corners*
20,1,$1+$1,$2,$3,$4,$5,0*
20,1,$1+$1,$4,$5,$6,$7,0*
20,1,$1+$1,$6,$7,$8,$9,0*
20,1,$1+$1,$8,$9,$2,$3,0*%
G04 Aperture macros list end*
G04 #@! TA.AperFunction,SMDPad,CuDef*
%ADD10RoundRect,0.250000X-0.250000X-0.475000X0.250000X-0.475000X0.250000X0.475000X-0.250000X0.475000X0*%
G04 #@! TD*
G04 #@! TA.AperFunction,SMDPad,CuDef*
%ADD11RoundRect,0.250000X0.250000X0.475000X-0.250000X0.475000X-0.250000X-0.475000X0.250000X-0.475000X0*%
G04 #@! TD*
G04 #@! TA.AperFunction,SMDPad,CuDef*
%ADD12RoundRect,0.250000X0.262500X0.450000X-0.262500X0.450000X-0.262500X-0.450000X0.262500X-0.450000X0*%
G04 #@! TD*
G04 #@! TA.AperFunction,ComponentPad*
%ADD13R,1.800000X1.800000*%
G04 #@! TD*
G04 #@! TA.AperFunction,ComponentPad*
%ADD14C,1.800000*%
G04 #@! TD*
G04 #@! TA.AperFunction,SMDPad,CuDef*
%ADD15RoundRect,0.150000X-0.512500X-0.150000X0.512500X-0.150000X0.512500X0.150000X-0.512500X0.150000X0*%
G04 #@! TD*
G04 #@! TA.AperFunction,SMDPad,CuDef*
%ADD16R,0.558800X0.977900*%
G04 #@! TD*
G04 #@! TA.AperFunction,SMDPad,CuDef*
%ADD17RoundRect,0.250000X-0.262500X-0.450000X0.262500X-0.450000X0.262500X0.450000X-0.262500X0.450000X0*%
G04 #@! TD*
G04 #@! TA.AperFunction,SMDPad,CuDef*
%ADD18RoundRect,0.250000X0.450000X-0.262500X0.450000X0.262500X-0.450000X0.262500X-0.450000X-0.262500X0*%
G04 #@! TD*
G04 #@! TA.AperFunction,SMDPad,CuDef*
%ADD19RoundRect,0.250003X-2.999997X3.499997X-2.999997X-3.499997X2.999997X-3.499997X2.999997X3.499997X0*%
G04 #@! TD*
G04 #@! TA.AperFunction,SMDPad,CuDef*
%ADD20RoundRect,0.250000X0.475000X-0.250000X0.475000X0.250000X-0.475000X0.250000X-0.475000X-0.250000X0*%
G04 #@! TD*
G04 #@! TA.AperFunction,ComponentPad*
%ADD21C,5.500000*%
G04 #@! TD*
G04 #@! TA.AperFunction,ComponentPad*
%ADD22C,2.000000*%
G04 #@! TD*
G04 #@! TA.AperFunction,ComponentPad*
%ADD23O,1.100000X1.700000*%
G04 #@! TD*
G04 #@! TA.AperFunction,ViaPad*
%ADD24C,0.800000*%
G04 #@! TD*
G04 #@! TA.AperFunction,Conductor*
%ADD25C,0.400000*%
G04 #@! TD*
G04 APERTURE END LIST*
D10*
X87725000Y-82490000D03*
X85825000Y-82490000D03*
D11*
X85750000Y-87400000D03*
X87650000Y-87400000D03*
D12*
X84600000Y-144600000D03*
X86425000Y-144600000D03*
X84687500Y-121600000D03*
X86512500Y-121600000D03*
X84587500Y-133000000D03*
X86412500Y-133000000D03*
X84612500Y-156000000D03*
X86437500Y-156000000D03*
D13*
X140140000Y-156200000D03*
D14*
X137600000Y-156200000D03*
D13*
X76455000Y-156000000D03*
D14*
X78995000Y-156000000D03*
D12*
X93925000Y-64600000D03*
X92100000Y-64600000D03*
D15*
X131600000Y-74000000D03*
X131600000Y-74950000D03*
X131600000Y-75900000D03*
X133875000Y-75900000D03*
X133875000Y-74950000D03*
X133875000Y-74000000D03*
D13*
X76500000Y-133000000D03*
D14*
X79040000Y-133000000D03*
D16*
X121000000Y-83579700D03*
X121950001Y-83579700D03*
X122900002Y-83579700D03*
X122900002Y-80900000D03*
X121950001Y-80900000D03*
X121000000Y-80900000D03*
D13*
X140152500Y-108200000D03*
D14*
X137612500Y-108200000D03*
D12*
X86525000Y-108600000D03*
X84700000Y-108600000D03*
D17*
X130887500Y-95500000D03*
X132712500Y-95500000D03*
D13*
X76837500Y-108500000D03*
D14*
X79377500Y-108500000D03*
D18*
X87300000Y-64525000D03*
X87300000Y-62700000D03*
D15*
X92000000Y-75300000D03*
X92000000Y-76250000D03*
X92000000Y-77200000D03*
X94275000Y-77200000D03*
X94275000Y-75300000D03*
D17*
X131100000Y-121500000D03*
X132925000Y-121500000D03*
D18*
X81900000Y-64525000D03*
X81900000Y-62700000D03*
D12*
X86512500Y-95500000D03*
X84687500Y-95500000D03*
D17*
X131052500Y-108200000D03*
X132877500Y-108200000D03*
X131187500Y-144400000D03*
X133012500Y-144400000D03*
D13*
X93940000Y-55000000D03*
D14*
X96480000Y-55000000D03*
D19*
X108500000Y-85510000D03*
X108500000Y-164890000D03*
D20*
X139200000Y-76950000D03*
X139200000Y-75050000D03*
D12*
X128912500Y-86500000D03*
X127087500Y-86500000D03*
D13*
X140240000Y-132100000D03*
D14*
X137700000Y-132100000D03*
D17*
X122987500Y-75400000D03*
X124812500Y-75400000D03*
X131127500Y-156200000D03*
X132952500Y-156200000D03*
X131057500Y-132100000D03*
X132882500Y-132100000D03*
D21*
X105900000Y-64150000D03*
X128000000Y-53850000D03*
D22*
X138000000Y-56000000D03*
X123000000Y-69900000D03*
X138000000Y-62000000D03*
D18*
X85600000Y-72312500D03*
X85600000Y-70487500D03*
D13*
X76500000Y-144600000D03*
D14*
X79040000Y-144600000D03*
D23*
X80580000Y-53100000D03*
X80580000Y-56900000D03*
X89220000Y-53100000D03*
X89220000Y-56900000D03*
D13*
X140240000Y-144400000D03*
D14*
X137700000Y-144400000D03*
D13*
X140200000Y-121500000D03*
D14*
X137660000Y-121500000D03*
D13*
X76900000Y-95500000D03*
D14*
X79440000Y-95500000D03*
D13*
X76625000Y-121600000D03*
D14*
X79165000Y-121600000D03*
D13*
X140270000Y-95500000D03*
D14*
X137730000Y-95500000D03*
D24*
X97600000Y-77300000D03*
X87400000Y-59600000D03*
X86450000Y-56980000D03*
X83350000Y-57000000D03*
X84700000Y-64525000D03*
X87650000Y-56980000D03*
X85500000Y-59900000D03*
X84300000Y-59900000D03*
X89800000Y-66200000D03*
X89800000Y-60900000D03*
X89100000Y-76250000D03*
X90300000Y-72000000D03*
X118600000Y-81100000D03*
X117000000Y-79500000D03*
X141300000Y-72900000D03*
X130900000Y-78400000D03*
X130900000Y-89500000D03*
X130900000Y-91900000D03*
X93500000Y-82400000D03*
X91100000Y-82400000D03*
X139300000Y-79300000D03*
X125997918Y-75597918D03*
X127600000Y-77400000D03*
X129812500Y-75900000D03*
X142800000Y-77300000D03*
X124123754Y-86076246D03*
X121000000Y-94000000D03*
X121000000Y-97000000D03*
D25*
X94375000Y-77300000D02*
X94275000Y-77200000D01*
X97600000Y-77300000D02*
X94375000Y-77300000D01*
X86450000Y-58650000D02*
X87400000Y-59600000D01*
X86450000Y-56980000D02*
X86450000Y-58650000D01*
X86430000Y-57000000D02*
X86450000Y-56980000D01*
X83350000Y-57000000D02*
X86430000Y-57000000D01*
X84700000Y-64525000D02*
X87300000Y-64525000D01*
X88700000Y-58030000D02*
X88700000Y-64600000D01*
X87650000Y-56980000D02*
X88700000Y-58030000D01*
X88700000Y-64600000D02*
X92100000Y-64600000D01*
X87730000Y-56900000D02*
X87650000Y-56980000D01*
X89220000Y-56900000D02*
X87730000Y-56900000D01*
X89220000Y-53100000D02*
X89220000Y-56900000D01*
X80580000Y-53100000D02*
X80580000Y-56900000D01*
X87300000Y-61700000D02*
X85500000Y-59900000D01*
X87300000Y-62700000D02*
X87300000Y-61700000D01*
X81900000Y-62300000D02*
X84300000Y-59900000D01*
X81900000Y-62700000D02*
X81900000Y-62300000D01*
X96480000Y-60980000D02*
X96480000Y-55000000D01*
X96400000Y-60900000D02*
X96480000Y-60980000D01*
X89800000Y-60900000D02*
X96400000Y-60900000D01*
X89800000Y-66287500D02*
X89800000Y-66200000D01*
X85600000Y-70487500D02*
X89800000Y-66287500D01*
X86050000Y-76250000D02*
X89100000Y-76250000D01*
X92100000Y-70200000D02*
X90300000Y-72000000D01*
X92100000Y-64600000D02*
X92100000Y-70200000D01*
X122900002Y-82561351D02*
X122900002Y-83579700D01*
X122829401Y-82490750D02*
X122900002Y-82561351D01*
X119990750Y-82490750D02*
X122829401Y-82490750D01*
X118600000Y-81100000D02*
X119990750Y-82490750D01*
X113750000Y-76250000D02*
X117000000Y-79500000D01*
X92000000Y-76250000D02*
X113750000Y-76250000D01*
X89012500Y-72312500D02*
X92000000Y-75300000D01*
X85600000Y-72312500D02*
X89012500Y-72312500D01*
X93925000Y-74950000D02*
X94275000Y-75300000D01*
X93925000Y-64600000D02*
X93925000Y-74950000D01*
X87650000Y-64600000D02*
X88700000Y-64600000D01*
X87575000Y-64525000D02*
X87650000Y-64600000D01*
X87300000Y-64525000D02*
X87575000Y-64525000D01*
X81900000Y-64525000D02*
X84700000Y-64525000D01*
X141300000Y-65300000D02*
X138000000Y-62000000D01*
X141300000Y-72900000D02*
X141300000Y-65300000D01*
X130900000Y-89500000D02*
X130900000Y-78400000D01*
X130887500Y-91912500D02*
X130900000Y-91900000D01*
X130887500Y-95500000D02*
X130887500Y-91912500D01*
X93500000Y-77975000D02*
X94275000Y-77200000D01*
X93500000Y-82400000D02*
X93500000Y-77975000D01*
X87725000Y-82490000D02*
X91010000Y-82490000D01*
X91010000Y-82490000D02*
X91100000Y-82400000D01*
X85825000Y-76475000D02*
X86050000Y-76250000D01*
X85825000Y-82490000D02*
X85825000Y-76475000D01*
X89100000Y-76250000D02*
X92000000Y-76250000D01*
X92000000Y-84700000D02*
X92000000Y-77200000D01*
X92000000Y-84700000D02*
X92810000Y-85510000D01*
X92810000Y-85510000D02*
X108500000Y-85510000D01*
X92000000Y-87300000D02*
X92000000Y-84700000D01*
X91900000Y-87400000D02*
X92000000Y-87300000D01*
X87650000Y-87400000D02*
X91900000Y-87400000D01*
X85750000Y-82565000D02*
X85825000Y-82490000D01*
X85750000Y-87400000D02*
X85750000Y-82565000D01*
X85000000Y-87400000D02*
X85750000Y-87400000D01*
X76900000Y-95500000D02*
X85000000Y-87400000D01*
X139300000Y-77050000D02*
X139200000Y-76950000D01*
X139300000Y-79300000D02*
X139300000Y-77050000D01*
X125800000Y-75400000D02*
X125997918Y-75597918D01*
X124812500Y-75400000D02*
X125800000Y-75400000D01*
X121070601Y-79811050D02*
X121000000Y-79881651D01*
X123057580Y-79811050D02*
X121070601Y-79811050D01*
X128868630Y-74000000D02*
X123057580Y-79811050D01*
X121000000Y-79881651D02*
X121000000Y-80900000D01*
X131600000Y-74000000D02*
X128868630Y-74000000D01*
X124100000Y-80900000D02*
X122900002Y-80900000D01*
X127600000Y-77400000D02*
X124100000Y-80900000D01*
X131600000Y-75900000D02*
X129812500Y-75900000D01*
X129050000Y-74950000D02*
X131600000Y-74950000D01*
X128900000Y-75100000D02*
X129050000Y-74950000D01*
X128912500Y-75112500D02*
X128900000Y-75100000D01*
X128912500Y-86500000D02*
X128912500Y-75112500D01*
X140550000Y-75050000D02*
X139200000Y-75050000D01*
X142800000Y-77300000D02*
X140550000Y-75050000D01*
X123700000Y-86500000D02*
X124123754Y-86076246D01*
X123700000Y-91300000D02*
X123700000Y-86500000D01*
X121000000Y-94000000D02*
X123700000Y-91300000D01*
X139200000Y-75050000D02*
X138150000Y-74000000D01*
X138150000Y-74000000D02*
X133875000Y-74000000D01*
X136752316Y-76950000D02*
X134752316Y-74950000D01*
X139200000Y-76950000D02*
X136752316Y-76950000D01*
X134752316Y-74950000D02*
X133875000Y-74950000D01*
X108500000Y-85510000D02*
X112877500Y-85510000D01*
X112877500Y-85510000D02*
X122987500Y-75400000D01*
X123000000Y-75387500D02*
X122987500Y-75400000D01*
X123000000Y-69900000D02*
X123000000Y-75387500D01*
X125820302Y-86500000D02*
X122900002Y-83579700D01*
X127087500Y-86500000D02*
X125820302Y-86500000D01*
X135770000Y-91000000D02*
X127200000Y-91000000D01*
X140270000Y-95500000D02*
X135770000Y-91000000D01*
X127200000Y-91000000D02*
X127087500Y-90887500D01*
X127087500Y-90887500D02*
X127087500Y-86500000D01*
X121000000Y-94000000D02*
X121000000Y-83579700D01*
X121000000Y-165000000D02*
X121000000Y-97000000D01*
X120890000Y-164890000D02*
X121000000Y-165000000D01*
X108500000Y-164890000D02*
X120890000Y-164890000D01*
X76837500Y-95562500D02*
X76900000Y-95500000D01*
X76837500Y-108500000D02*
X76837500Y-95562500D01*
X76625000Y-108712500D02*
X76837500Y-108500000D01*
X76625000Y-121600000D02*
X76625000Y-108712500D01*
X76500000Y-121725000D02*
X76625000Y-121600000D01*
X76500000Y-133000000D02*
X76500000Y-121725000D01*
X76500000Y-144600000D02*
X76500000Y-133000000D01*
X76455000Y-144645000D02*
X76500000Y-144600000D01*
X76455000Y-156000000D02*
X76455000Y-144645000D01*
X86437500Y-144612500D02*
X86425000Y-144600000D01*
X86437500Y-156000000D02*
X86437500Y-144612500D01*
X86425000Y-144600000D02*
X86425000Y-133012500D01*
X86425000Y-133012500D02*
X86412500Y-133000000D01*
X86412500Y-121700000D02*
X86512500Y-121600000D01*
X86412500Y-133000000D02*
X86412500Y-121700000D01*
X86512500Y-108612500D02*
X86525000Y-108600000D01*
X86512500Y-121600000D02*
X86512500Y-108612500D01*
X86525000Y-95512500D02*
X86512500Y-95500000D01*
X86525000Y-108600000D02*
X86525000Y-95512500D01*
X130792500Y-95405000D02*
X130887500Y-95500000D01*
X86607500Y-95405000D02*
X130792500Y-95405000D01*
X86512500Y-95500000D02*
X86607500Y-95405000D01*
X131052500Y-108200000D02*
X130887500Y-108035000D01*
X130887500Y-108035000D02*
X130887500Y-95500000D01*
X131100000Y-108247500D02*
X131052500Y-108200000D01*
X131100000Y-121500000D02*
X131100000Y-108247500D01*
X131057500Y-121542500D02*
X131100000Y-121500000D01*
X131057500Y-132100000D02*
X131057500Y-121542500D01*
X131057500Y-144182500D02*
X131057500Y-132100000D01*
X131187500Y-144312500D02*
X131057500Y-144182500D01*
X131187500Y-144400000D02*
X131187500Y-144312500D01*
X131127500Y-144460000D02*
X131187500Y-144400000D01*
X131127500Y-156200000D02*
X131127500Y-144460000D01*
X140270000Y-95500000D02*
X140270000Y-108082500D01*
X140270000Y-108082500D02*
X140152500Y-108200000D01*
X140152500Y-121452500D02*
X140200000Y-121500000D01*
X140152500Y-108200000D02*
X140152500Y-121452500D01*
X140200000Y-132060000D02*
X140240000Y-132100000D01*
X140200000Y-121500000D02*
X140200000Y-132060000D01*
X140240000Y-144400000D02*
X140240000Y-132100000D01*
X140240000Y-156100000D02*
X140140000Y-156200000D01*
X140240000Y-144400000D02*
X140240000Y-156100000D01*
X132952500Y-156200000D02*
X137600000Y-156200000D01*
X133012500Y-144400000D02*
X137700000Y-144400000D01*
X132882500Y-132100000D02*
X137700000Y-132100000D01*
X132925000Y-121500000D02*
X137660000Y-121500000D01*
X132877500Y-108200000D02*
X137612500Y-108200000D01*
X132712500Y-95500000D02*
X137730000Y-95500000D01*
X84612500Y-156000000D02*
X78995000Y-156000000D01*
X84600000Y-144600000D02*
X79040000Y-144600000D01*
X84587500Y-133000000D02*
X79040000Y-133000000D01*
X84687500Y-121600000D02*
X79452500Y-121600000D01*
X79477500Y-108600000D02*
X79377500Y-108500000D01*
X84700000Y-108600000D02*
X79477500Y-108600000D01*
X85087500Y-95500000D02*
X79440000Y-95500000D01*
M02*
